<?xml version="1.0" encoding="utf-8"?>
<!-- Generator: Adobe Illustrator 25.2.1, SVG Export Plug-In . SVG Version: 6.00 Build 0)  -->
<svg version="1.1" id="Layer_1" xmlns="http://www.w3.org/2000/svg" xmlns:xlink="http://www.w3.org/1999/xlink" x="0px" y="0px"
	 viewBox="0 0 304 208" style="enable-background:new 0 0 304 208;" xml:space="preserve">
<style type="text/css">
	.st0{fill:none;}
	.st1{fill:none;stroke:#000000;stroke-width:6;stroke-miterlimit:10;}
</style>
<g id="Layer_1_1_">
	<path id="SVGID_x5F_1_x5F_" class="st0" d="M247.3,101.7c0-49.4-40.1-89.5-89.5-89.5s-89.5,40.1-89.5,89.5s40.1,89.5,89.5,89.5
		S247.3,151.1,247.3,101.7z"/>
	<text transform="matrix(1 0 0 1 -17.0714 -73.1282)" style="font-family:'ArialMT'; font-size:2.0979px;"> </text>
	<g>
		<path d="M148.6,95.5c1.2,0,2.2,0.3,3,0.8c0.8,0.5,1.3,1.2,1.6,2c0.3,0.8,0.3,1.7,0.3,2.7c-0.1,1-0.4,1.9-0.8,2.7
			c0.3,0,0.7,0.1,1,0.1c1.5,0,3.2-0.2,5.3-0.7c2-0.5,3.7-0.9,4.9-1.2c1.2-0.3,1.8-0.4,1.8-0.2c0,0.7-1.5,1.4-4.5,2.3
			c-3,0.8-5.5,1.2-7.4,1.2c-0.7,0-1.4,0-2-0.1c-1.3,1.6-3,2.4-5,2.4c-1.3,0-2.1-0.6-2.4-1.7c-0.3-1.1,0.1-1.9,1.1-2.5
			c0.5-0.3,1-0.4,1.7-0.4c0.7,0,2,0.2,3.7,0.7c0.5-0.9,0.8-1.8,0.9-2.7c0.1-0.9-0.2-1.7-0.7-2.4c-0.5-0.7-1.3-1-2.4-1
			c-1.7,0-3.2,1.2-4.6,3.7c-1.4,2.5-2.5,5.5-3.4,9.2c-0.9,3.7-1.7,7.7-2.4,12.1c-0.7,4.3-1.3,8.4-1.8,12.1c-0.5,3.7-0.9,6.8-1.4,9.3
			c-0.5,2.5-0.9,3.7-1.2,3.7c-1.5,0-2.3-3.5-2.4-10.6c-0.1-7,0.2-14.4,1-22c0.7-7.7,1.5-12.9,2.2-15.7c-3,1.7-6.1,3-9.3,4
			c-3.2,1-6.3,1.7-9.3,2.1c-3,0.4-6,0.6-9,0.6s-6-0.2-8.8-0.5c-2.8-0.3-5.6-0.7-8.3-1.2c-2.7-0.4-5.3-0.9-7.9-1.3
			c-2.6-0.5-5-0.8-7.3-1.1c-2.3-0.3-4.5-0.4-6.7-0.4c-2.2,0-4.1,0.3-5.8,0.7c-1.3,0.3-2.1,0.2-2.4-0.5c-0.2-0.7,0.2-1.2,1.2-1.7
			c0.2-0.1,0.5-0.2,0.8-0.3c1.4-0.4,3-0.5,4.7-0.4c1.7,0.1,3.7,0.4,6.1,0.7c2.4,0.3,4.8,0.8,7.3,1.4c2.5,0.6,5.2,1.1,8.2,1.5
			c3,0.5,5.9,0.9,8.9,1.3c2.9,0.4,6.1,0.6,9.3,0.7c3.3,0,6.5-0.1,9.6-0.5s6.3-1,9.7-2.1c3.3-1,6.5-2.4,9.5-4.1
			c0.6-0.6,1.2-0.7,1.7-0.4c0.3,0.2,0.3,0.4,0.2,0.7c-0.2,0.3-0.5,2.1-0.9,5.4c-0.5,3.3-0.9,7.3-1.4,11.8c-0.5,4.6-0.9,9.1-1.2,13.6
			c-0.4,4.5-0.5,8.3-0.5,11.4c0,3.1,0.3,4.7,0.8,4.7c0.1,0,0.2-0.9,0.3-2.7s0.3-4.2,0.6-7.1c0.3-2.9,0.6-6.1,1-9.6
			c0.4-3.5,1-7,1.7-10.6c0.7-3.5,1.6-6.7,2.5-9.6c1-2.9,2.2-5.3,3.7-7.1C145.2,96.5,146.8,95.5,148.6,95.5z M147.2,104.4
			c-0.8,0-1.2,0.2-1.1,0.7c0,0.4,0.3,0.7,1,0.7c1,0,1.9-0.3,2.7-1C148.8,104.5,148,104.4,147.2,104.4z"/>
		<path d="M171.7,64.7c5.3,0,8.4,2.5,9.3,7.5c0.9,5-0.1,10.5-2.9,16.4c-2.9,5.9-6.5,10.1-10.8,12.7c-0.7,0.4-1.5,0.8-2.3,1.2
			c0.5,2.1,1,4.1,1.5,5.9c0.3-1.1,0.6-2.1,0.9-3.1c0.3-1,0.8-1.9,1.3-2.9c0.6-1,1.3-1.7,2.1-2.3c0.8-0.6,1.8-0.9,2.8-0.9
			c1.2,0,2.1,0.5,2.6,1.5c0.6,1,0.9,2.2,0.9,3.7c0,0.6-0.1,1.2-0.3,1.8c2.5-1.3,5.6-2.1,9.2-2.5c3.6-0.4,7.4-0.4,11.4-0.1
			c4,0.3,8.1,0.8,12.5,1.5c4.4,0.6,8.7,1.3,12.9,1.9c4.3,0.6,8.3,1.1,12.2,1.4c3.9,0.3,7.5,0.3,10.9-0.1c3.4-0.4,6.2-1.2,8.5-2.5
			c0.7-0.3,1.1-0.4,1.5-0.2c0.3,0.2,0.5,0.5,0.4,1c-0.1,0.5-0.4,0.9-0.9,1.2c-2.1,1.2-4.9,2-8.4,2.3c-3.5,0.3-7.2,0.2-11.2-0.2
			c-4-0.4-8.2-1-12.7-1.8c-4.5-0.7-8.9-1.5-13.4-2.2c-4.5-0.7-8.8-1.2-12.8-1.5c-4.1-0.3-7.9-0.2-11.6,0.3c-3.6,0.5-6.6,1.5-9,3
			c-0.5,0.9-1.1,1.8-1.9,2.7c-0.8,0.9-1.4,1.6-1.9,2.1l-0.8,0.7v-0.1c-0.2,0.5-0.5,0.6-0.9,0.3c-0.4-0.3-0.4-0.7-0.1-1.2
			c0.9-1.6,2.1-3,3.5-4.1c0.8-1.6,1.2-2.8,1.2-3.7c0-2.3-0.6-3.5-1.8-3.5c-2.6,0-4.7,3.2-6.3,9.5c0.5,1.5,1,2.7,1.6,3.6
			c0.4,0.7,0.3,1.2-0.2,1.4c-0.6,0.3-1.2-0.1-1.8-1.1c0-0.1-0.1-0.2-0.1-0.3c-0.9-1.9-1.8-4.4-2.7-7.5c-0.9-3.1-1.6-6.5-2.3-10.2
			c-0.6-3.7-1-7.4-1-11.1c0-3.7,0.3-7.1,0.8-10.2c0.6-3,1.7-5.5,3.5-7.4C166.7,65.7,169,64.7,171.7,64.7z M171.7,66.4
			c-2,0-3.7,0.8-5.1,2.3c-1.3,1.5-2.3,3.5-2.8,5.9c-0.5,2.4-0.8,5.2-0.9,8.4c-0.1,3.2,0.1,6.3,0.5,9.4c0.4,3.1,0.9,6.2,1.5,9.3
			c0.8-0.4,1.5-0.9,2.3-1.3c3.9-2.2,7.2-6.1,9.8-11.6c2.6-5.6,3.6-10.6,2.9-15.1c-0.7-4.4-3-6.9-7.1-7.3
			C172.4,66.5,172.1,66.4,171.7,66.4z"/>
	</g>
	<path class="st1" d="M247.3,101.7c0,49.4-40.1,89.5-89.5,89.5s-89.5-40.1-89.5-89.5s40.1-89.5,89.5-89.5"/>
</g>
</svg>
