<?xml version="1.0" encoding="utf-8"?>
<!-- Generator: Adobe Illustrator 25.2.1, SVG Export Plug-In . SVG Version: 6.00 Build 0)  -->
<svg version="1.1" id="Layer_1" xmlns="http://www.w3.org/2000/svg" xmlns:xlink="http://www.w3.org/1999/xlink" x="0px" y="0px"
	 viewBox="0 0 73 50" style="enable-background:new 0 0 73 50;" xml:space="preserve">
<style type="text/css">
	.st0{fill-opacity:0;}
	.st1{fill:#2E2E2E;}
	.st2{fill:#E2E21D;}
	.st3{fill:#EE2C29;}
</style>
<rect class="st0" width="73" height="50"/>
<g>
	<path class="st1" d="M0,32.4V17.6h5.9c1.3,0,2.4,0.4,3.1,1.3c0.7,0.8,1.1,1.8,1.1,3.1c0,0.1,0,0.1,0,0.2c0,0.6-0.1,1.2-0.4,1.7
		c-0.2,0.5-0.6,0.9-1,1.2c0.5,0.3,0.8,0.8,1.1,1.3s0.4,1.1,0.4,1.7c0,1.2-0.4,2.3-1.3,3.2C8.1,32,7,32.4,5.8,32.4H0z M3,23.5h1.8
		h0.9c0.4,0,0.7-0.1,1-0.4C6.8,22.8,7,22.4,7,22s-0.1-0.8-0.4-1.1c-0.2-0.3-0.6-0.4-1-0.4H3V23.5z M3,29.4h1.8h0.9
		c0.4,0,0.8-0.1,1.1-0.4s0.4-0.6,0.4-1.1c0-0.4-0.1-0.8-0.4-1c-0.3-0.3-0.6-0.4-1.1-0.4H3V29.4z"/>
	<path class="st1" d="M19.6,27.8c-0.3-0.9-0.5-1.8-0.5-2.8s0.2-1.9,0.5-2.8s0.8-1.7,1.4-2.4c0.6-0.7,1.4-1.3,2.4-1.7
		c1-0.4,2.1-0.7,3.3-0.7c1.2,0,2.3,0.2,3.3,0.7s1.8,1,2.4,1.7c0.6,0.7,1.1,1.5,1.4,2.4c0.3,0.9,0.5,1.8,0.5,2.8s-0.2,1.9-0.5,2.8
		s-0.8,1.7-1.4,2.4c-0.6,0.7-1.4,1.3-2.4,1.7c-1,0.4-2.1,0.7-3.3,0.7c-1.2,0-2.3-0.2-3.3-0.7c-1-0.4-1.8-1-2.4-1.7
		C20.4,29.5,19.9,28.7,19.6,27.8z M22.6,23.3c-0.2,0.5-0.3,1.1-0.3,1.7s0.1,1.1,0.3,1.7c0.2,0.5,0.5,1,0.8,1.5
		c0.4,0.4,0.8,0.8,1.4,1c0.6,0.3,1.2,0.4,1.9,0.4c0.7,0,1.4-0.1,1.9-0.4c0.6-0.3,1-0.6,1.4-1s0.6-0.9,0.8-1.5
		c0.2-0.5,0.3-1.1,0.3-1.7s-0.1-1.1-0.3-1.7c-0.2-0.5-0.5-1-0.8-1.5c-0.4-0.4-0.8-0.8-1.4-1s-1.2-0.4-1.9-0.4
		c-0.7,0-1.4,0.1-1.9,0.4c-0.6,0.3-1,0.6-1.4,1C23.1,22.3,22.8,22.7,22.6,23.3z"/>
	<path class="st1" d="M44,32.4V17.3h0.8l7.5,8.7v-8.4h3v15.1h-0.8L47,24.3v8h-3V32.4z"/>
	<path class="st1" d="M65.4,32.4V17.6h7.4v3h-4.4v2.9h3.9v3h-3.9v3H73v3L65.4,32.4L65.4,32.4z"/>
</g>
<rect x="-11" y="-22.4" class="st2" width="94.9" height="94.9"/>
<g>
	<g>
		<path class="st3" d="M37.7,47.6l-0.2,0c0,0-0.1,0-0.1,0c0,0,0,0,0,0.1l0,0l0,0.3c0,0.2,0.1,0.3,0.1,0.3c0,0,0,0,0.1,0
			c0,0,0,0,0.1,0c0,0,0.1,0,0.1,0c0,0,0,0,0,0.1c0,0,0,0.1,0,0.1c0,0-0.1,0-0.1,0c0,0-0.1,0-0.2,0c0,0-0.1,0-0.2,0c0,0-0.1,0-0.2,0
			s-0.1,0-0.2,0c0,0-0.1,0-0.1,0c0,0,0-0.1,0-0.1c0-0.1,0-0.1,0.1-0.1c0,0,0,0,0.1,0c0,0,0.1,0,0.1,0c0,0,0.1,0,0.1-0.1
			c0-0.1,0-0.2,0-0.5l0-0.6c0-0.3,0-0.4,0-0.5c0-0.1,0-0.1-0.1-0.1c0,0,0,0-0.1,0c0,0,0,0-0.1,0c-0.1,0-0.1,0-0.1-0.1
			c0-0.1,0-0.1,0.1-0.1c0,0,0.1,0,0.2,0c0.1,0,0.1,0,0.2,0c0.1,0,0.2,0,0.3,0c0.1,0,0.2,0,0.3,0c0.2,0,0.4,0,0.5,0.1
			c0.1,0.1,0.2,0.3,0.2,0.5c0,0.3-0.1,0.5-0.3,0.6C38.1,47.5,37.9,47.5,37.7,47.6z M37.7,46.5c-0.1,0-0.2,0-0.3,0.1
			c0,0-0.1,0.1-0.1,0.2l0,0.5c0,0.1,0,0.1,0,0.1c0,0,0,0,0.1,0c0.1,0,0.2,0,0.2,0c0.3,0,0.5-0.2,0.5-0.4c0-0.2-0.1-0.3-0.1-0.3
			C38,46.5,37.8,46.5,37.7,46.5z"/>
		<path class="st3" d="M40.6,47.4l0-0.2c0,0,0-0.1,0-0.1c0,0,0,0-0.1,0c0,0,0,0-0.1,0l-0.6,0.1c0,0,0,0-0.1,0c0,0,0,0.1,0,0.1l0,0.1
			l0.1,0.3c0,0.2,0.1,0.2,0.2,0.2c0,0,0,0,0.1,0c0,0,0,0,0.1,0c0,0,0.1,0,0.1,0c0,0,0,0,0,0.1c0,0,0,0.1,0,0.1c0,0-0.1,0-0.1,0.1
			c0,0-0.1,0-0.2,0c-0.1,0-0.1,0-0.2,0c0,0-0.1,0-0.2,0c-0.1,0-0.1,0-0.2,0c0,0-0.1,0-0.1,0c0,0-0.1-0.1-0.1-0.1
			c0-0.1,0-0.1,0.1-0.1c0,0,0,0,0.1,0c0,0,0.1,0,0.1,0c0,0,0.1,0,0.1-0.1c0-0.1,0-0.2-0.1-0.5l-0.1-0.6c0-0.3-0.1-0.4-0.1-0.5
			c0-0.1-0.1-0.1-0.1-0.1c0,0,0,0-0.1,0c0,0,0,0-0.1,0c-0.1,0-0.1,0-0.1-0.1c0-0.1,0-0.1,0.1-0.2c0,0,0.1,0,0.2,0c0.1,0,0.2,0,0.2,0
			c0,0,0.1,0,0.2,0c0.1,0,0.1,0,0.2,0c0,0,0.1,0,0.1,0s0.1,0,0.1,0.1c0,0,0,0.1,0,0.1c0,0,0,0-0.1,0c0,0,0,0-0.1,0c0,0,0,0-0.1,0
			c-0.1,0-0.1,0.1-0.1,0.3c0,0,0,0.1,0.1,0.3l0,0l0,0c0,0,0,0.1,0,0.1c0,0,0.1,0,0.2,0l0.4-0.1c0.1,0,0.1,0,0.2,0c0,0,0-0.1,0-0.1
			l0,0c0-0.2-0.1-0.3-0.1-0.3c0-0.2-0.1-0.2-0.2-0.2c0,0,0,0-0.1,0c0,0,0,0-0.1,0c0,0-0.1,0-0.1,0c0,0,0,0,0-0.1c0,0,0-0.1,0-0.1
			s0.1,0,0.1-0.1c0,0,0.1,0,0.2,0c0.1,0,0.1,0,0.2,0c0,0,0.1,0,0.2,0c0.1,0,0.1,0,0.2,0c0,0,0.1,0,0.1,0s0.1,0,0.1,0.1
			c0,0,0,0.1,0,0.1c0,0,0,0-0.1,0c0,0,0,0-0.1,0c0,0,0,0-0.1,0c-0.1,0-0.1,0.1-0.1,0.3c0,0,0,0.1,0.1,0.3l0.1,0.6l0.1,0.3
			c0,0.2,0.1,0.2,0.2,0.2c0,0,0,0,0.1,0c0,0,0,0,0.1,0c0,0,0.1,0,0.1,0c0,0,0,0,0,0.1c0,0,0,0.1,0,0.1c0,0-0.1,0-0.1,0.1
			c0,0-0.1,0-0.2,0s-0.1,0-0.2,0c0,0-0.1,0-0.2,0c-0.1,0-0.1,0-0.2,0c0,0-0.1,0-0.1,0c0,0-0.1-0.1-0.1-0.1c0,0,0-0.1,0-0.1
			c0,0,0,0,0.1,0c0,0,0,0,0.1,0c0,0,0.1,0,0.1,0c0.1,0,0.1-0.1,0.1-0.3L40.6,47.4z"/>
		<path class="st3" d="M43,47.7c-0.2,0.1-0.5,0-0.7-0.1s-0.4-0.4-0.5-0.8c-0.1-0.3-0.1-0.6,0-0.9c0.1-0.2,0.2-0.4,0.5-0.5
			c0.2-0.1,0.5,0,0.7,0.1c0.2,0.2,0.4,0.4,0.5,0.8c0.1,0.3,0.1,0.6,0,0.9C43.4,47.5,43.3,47.6,43,47.7z M42.4,45.6
			c-0.2,0-0.3,0.2-0.3,0.4c0,0.2,0,0.4,0.1,0.7c0.1,0.3,0.2,0.5,0.3,0.6c0.1,0.1,0.3,0.2,0.4,0.1c0.2,0,0.3-0.2,0.3-0.3
			c0-0.2,0-0.4-0.1-0.7c-0.1-0.3-0.2-0.5-0.3-0.6C42.7,45.6,42.6,45.6,42.4,45.6z"/>
		<path class="st3" d="M44.8,45.1l0.4,0.9c0.1,0.2,0.2,0.4,0.2,0.4c0,0.1,0.1,0.1,0.1,0.1c0,0,0,0,0.1,0c0,0,0,0,0.1,0
			c0.1,0,0.1,0,0.2,0.1c0,0,0,0.1,0,0.1c0,0,0,0.1-0.1,0.1c0,0-0.1,0-0.2,0c-0.1,0-0.1,0-0.2,0.1c0,0-0.1,0-0.2,0.1
			c-0.1,0-0.1,0.1-0.2,0.1c0,0-0.1,0-0.1,0c0,0-0.1,0-0.1-0.1c0-0.1,0-0.1,0.1-0.2c0,0,0,0,0.1,0c0,0,0.1,0,0.1,0c0,0,0.1-0.1,0-0.1
			c0-0.1-0.1-0.2-0.2-0.5l-0.3-0.7c-0.1-0.2-0.1-0.3-0.2-0.3c0,0-0.1,0-0.2,0c-0.1,0-0.1,0.1-0.2,0.1c0,0,0,0.1,0,0.1
			c0,0,0,0.1,0.1,0.2c0,0.1,0.1,0.1,0.1,0.2c0,0.1,0,0.2-0.1,0.2c-0.1,0-0.1,0-0.2-0.1c0,0,0,0,0-0.1c0-0.1-0.1-0.2-0.1-0.2
			c0,0,0-0.1-0.1-0.2c0,0,0-0.1-0.1-0.1c0-0.1,0-0.1,0.1-0.2c0,0,0.1,0,0.2-0.1c0.1,0,0.2-0.1,0.4-0.1l0.1,0l0.2-0.1
			c0.1,0,0.2-0.1,0.2-0.1c0.1,0,0.2-0.1,0.2-0.1c0.1,0,0.1,0,0.2,0.1c0,0,0,0,0,0.1c0,0.1,0.1,0.2,0.1,0.2c0,0,0,0.1,0.1,0.2
			c0,0,0,0.1,0,0.1c0,0.1,0,0.2-0.1,0.2c-0.1,0-0.1,0-0.2-0.1c0,0,0,0,0-0.1c0,0,0-0.1,0-0.1l-0.1-0.2c0-0.1-0.1-0.1-0.1-0.1
			c0,0-0.1,0-0.2,0c-0.1,0-0.1,0.1-0.2,0.1C44.8,45,44.8,45,44.8,45.1z"/>
		<path class="st3" d="M47.6,45.8c-0.2,0.1-0.5,0.1-0.7,0c-0.2-0.1-0.4-0.3-0.6-0.7c-0.2-0.3-0.2-0.6-0.2-0.9c0-0.3,0.2-0.5,0.4-0.6
			c0.2-0.1,0.4-0.1,0.7,0c0.2,0.1,0.4,0.3,0.6,0.7C48,44.7,48,45,48,45.2C48,45.5,47.9,45.7,47.6,45.8z M46.6,43.9
			c-0.2,0.1-0.2,0.2-0.2,0.4c0,0.2,0.1,0.4,0.2,0.7c0.1,0.3,0.3,0.4,0.5,0.5c0.2,0.1,0.3,0.1,0.5,0c0.1-0.1,0.2-0.2,0.2-0.4
			c0-0.2-0.1-0.4-0.2-0.7c-0.1-0.3-0.3-0.4-0.5-0.5C46.9,43.9,46.8,43.8,46.6,43.9z"/>
		<path class="st3" d="M49.5,42.6c0.1,0.2,0.1,0.4,0,0.6c0.3-0.1,0.5,0,0.7,0.2c0.1,0.2,0.1,0.3,0.1,0.5c0,0.2-0.1,0.3-0.3,0.5
			c-0.1,0-0.1,0.1-0.3,0.2c-0.1,0-0.2,0.1-0.2,0.1c0,0-0.1,0.1-0.1,0.1c-0.1,0.1-0.1,0.1-0.1,0.1c0,0-0.1,0-0.1,0c0,0-0.1,0-0.1-0.1
			c0-0.1,0-0.1,0-0.2c0,0,0,0,0.1,0c0,0,0.1,0,0.1,0c0,0,0-0.1,0-0.1c0-0.1-0.1-0.2-0.3-0.4l-0.4-0.5c-0.1-0.2-0.2-0.3-0.3-0.4
			c0,0-0.1-0.1-0.1,0c0,0,0,0,0,0s0,0-0.1,0c-0.1,0-0.1,0-0.2,0c-0.1-0.1,0-0.1,0-0.2c0,0,0.1-0.1,0.2-0.1c0.1,0,0.1-0.1,0.2-0.1
			c0.1-0.1,0.2-0.1,0.2-0.2c0.1-0.1,0.1-0.1,0.2-0.2c0.2-0.1,0.3-0.2,0.5-0.1C49.2,42.3,49.4,42.4,49.5,42.6z M48.5,43.1l0.2,0.3
			c0,0,0,0,0,0.1c0,0,0,0,0.1,0l0.1-0.1c0.2-0.1,0.3-0.2,0.3-0.3c0-0.1,0-0.2-0.1-0.3c-0.1-0.2-0.3-0.2-0.6,0
			c-0.1,0.1-0.2,0.1-0.2,0.2C48.5,43,48.5,43,48.5,43.1z M49.2,43.5c-0.1,0.1-0.1,0.1-0.1,0.1c0,0-0.1,0.1,0,0.1l0.3,0.4
			c0.1,0.1,0.1,0.1,0.2,0.2c0.1,0,0.1,0,0.3-0.1c0.3-0.2,0.4-0.4,0.2-0.7c-0.1-0.2-0.2-0.2-0.4-0.2C49.4,43.4,49.3,43.4,49.2,43.5z"
			/>
		<path class="st3" d="M51.4,41c0.2,0.2,0.2,0.4,0,0.7c0.1,0,0.2-0.1,0.3,0c0.1,0,0.1,0.1,0.2,0.2l0.1,0.1l0.1,0.1
			c0.1,0.1,0.2,0.1,0.2,0.1c0,0,0,0,0-0.1c0,0,0,0,0,0c0.1-0.1,0.1-0.1,0.2,0c0.1,0.1,0,0.1,0,0.2l0,0l-0.1,0.1l-0.1,0.1
			c-0.1,0.1-0.1,0.1-0.2,0c-0.1,0-0.2-0.1-0.3-0.3L51.7,42c-0.1-0.1-0.2-0.1-0.2-0.1c-0.1,0-0.2,0.1-0.3,0.2l0,0l-0.1,0.1
			c0,0,0,0,0,0.1c0,0,0,0.1,0.1,0.1l0.1,0.1c0.2,0.2,0.3,0.3,0.3,0.4c0.1,0,0.1,0,0.1,0c0,0,0,0,0-0.1c0,0,0,0,0,0
			c0.1-0.1,0.1-0.1,0.2,0c0,0,0,0.1,0,0.1c0,0,0,0.1-0.1,0.1c0,0-0.1,0.1-0.1,0.1c-0.1,0-0.1,0.1-0.2,0.1c0,0-0.1,0.1-0.1,0.1
			c-0.1,0.1-0.1,0.1-0.1,0.1c0,0-0.1,0-0.1,0c0,0-0.1,0-0.1,0c0-0.1,0-0.1,0-0.2c0,0,0,0,0.1,0c0,0,0.1,0,0.1,0c0,0,0-0.1,0-0.1
			c0-0.1-0.1-0.2-0.3-0.4l-0.4-0.5c-0.2-0.2-0.3-0.3-0.3-0.4c-0.1,0-0.1,0-0.1,0c0,0,0,0,0,0c0,0,0,0,0,0.1c-0.1,0.1-0.1,0.1-0.2,0
			c-0.1-0.1-0.1-0.1,0-0.2c0,0,0.1-0.1,0.2-0.1c0.1,0,0.1-0.1,0.2-0.1c0.1,0,0.1-0.1,0.2-0.2c0.1-0.1,0.2-0.2,0.2-0.2
			c0.1-0.1,0.3-0.2,0.4-0.2C51.1,40.8,51.3,40.9,51.4,41z M50.8,42c0,0,0.1,0,0.1,0l0.1,0c0,0,0,0,0,0c0,0,0,0,0,0
			c0.1-0.1,0.1-0.1,0.2-0.2c0.1-0.1,0.1-0.1,0.1-0.2c0-0.1,0-0.2-0.1-0.2c-0.2-0.2-0.4-0.2-0.6,0c-0.1,0.1-0.2,0.2-0.2,0.2
			c0,0.1,0,0.1,0,0.1L50.8,42z"/>
		<path class="st3" d="M53,40.8l-0.8-1.3c0-0.1-0.1-0.1-0.1-0.1c0,0,0-0.1,0-0.1c0-0.1,0.1-0.1,0.1-0.1c0,0,0.1,0,0.3,0.1l1.5,0.7
			c0.1,0,0.2,0.1,0.2,0.1c0,0,0.1,0,0.1,0c0,0,0,0,0-0.1c0,0,0,0,0,0c0,0,0,0,0,0c0.1-0.1,0.1-0.1,0.2,0c0.1,0.1,0.1,0.1,0,0.2
			c0,0-0.1,0-0.1,0.1c0,0-0.1,0.1-0.1,0.1c0,0-0.1,0.1-0.1,0.2c0,0.1-0.1,0.1-0.1,0.1c0,0-0.1,0-0.1,0c0,0-0.1,0-0.1,0
			c-0.1-0.1-0.1-0.1,0-0.2c0,0,0,0,0,0c0,0,0,0,0,0c0,0,0,0,0,0c0,0,0-0.1,0-0.1c0,0-0.1-0.1-0.1-0.1L53.6,40c0,0-0.1,0-0.1,0
			s0,0-0.1,0l-0.3,0.3c0,0,0,0.1,0,0.2l0.1,0.2c0,0.1,0.1,0.1,0.1,0.1c0,0,0.1,0,0.1,0c0,0,0,0,0,0c0,0,0,0,0,0c0,0,0,0,0,0
			c0.1-0.1,0.1-0.1,0.2,0c0.1,0.1,0.1,0.1,0,0.2c0,0-0.1,0.1-0.1,0.1c-0.1,0-0.1,0.1-0.1,0.1c0,0-0.1,0.1-0.1,0.2
			c0,0.1-0.1,0.1-0.1,0.1c-0.1,0.1-0.1,0.1-0.2,0c-0.1-0.1-0.1-0.1,0-0.2c0,0,0,0,0,0c0,0,0,0,0,0c0,0,0-0.1,0-0.2
			C53.2,41,53.1,40.9,53,40.8z M53.3,39.8l-0.8-0.4l0.5,0.7c0,0,0,0,0,0c0,0,0,0,0.1,0L53.3,39.8C53.4,39.9,53.4,39.9,53.3,39.8
			C53.3,39.9,53.3,39.9,53.3,39.8z"/>
		<path class="st3" d="M53.8,37.5l1.9,0.5l-0.9-0.7c-0.2-0.1-0.3-0.2-0.3-0.2c-0.1-0.1-0.2-0.1-0.3-0.1c0,0,0,0,0,0.1c0,0,0,0,0,0.1
			c0,0,0,0-0.1,0.1c0,0-0.1,0-0.1,0c0,0,0-0.1-0.1-0.1c0,0,0-0.1,0-0.1c0,0,0.1-0.1,0.1-0.1c0,0,0.1-0.1,0.1-0.1
			c0-0.1,0.1-0.1,0.1-0.2c0-0.1,0.1-0.1,0.1-0.1c0,0,0,0,0.1,0c0,0,0.1,0,0.1,0c0.1,0,0.1,0.1,0,0.2c0,0,0,0,0,0s0,0,0,0
			c0,0,0,0.1,0.1,0.2l0.1,0.1l0.2,0.1l1,0.7c0.1,0.1,0.2,0.2,0.1,0.3c-0.1,0.1-0.2,0.1-0.3,0.1l-1.8-0.5l1,0.7
			c0.2,0.2,0.4,0.2,0.4,0.3c0.1,0,0.1,0,0.1,0c0,0,0,0,0-0.1c0,0,0,0,0-0.1c0-0.1,0.1-0.1,0.2,0c0,0,0,0.1,0.1,0.1c0,0,0,0.1,0,0.1
			c0,0,0,0-0.1,0.1c0,0-0.1,0.1-0.1,0.1c0,0.1-0.1,0.1-0.1,0.2c0,0.1-0.1,0.1-0.1,0.2c0,0-0.1,0.1-0.1,0.1s-0.1,0-0.1,0
			c-0.1,0-0.1-0.1,0-0.2c0,0,0,0,0,0c0,0,0,0,0-0.1c0,0,0-0.1,0-0.1c0,0-0.2-0.1-0.4-0.3l-0.5-0.4c-0.2-0.2-0.4-0.2-0.4-0.3
			c-0.1,0-0.1,0-0.1,0c0,0,0,0,0,0.1c0,0,0,0,0,0.1c0,0.1-0.1,0.1-0.2,0c0,0,0-0.1-0.1-0.1c0,0,0-0.1,0-0.1c0,0,0.1-0.1,0.1-0.1
			c0,0,0.1-0.1,0.1-0.1c0,0,0-0.1,0.1-0.1c0,0,0,0,0,0C53.7,37.5,53.7,37.5,53.8,37.5z"/>
		<path class="st3" d="M56.6,36.8c0,0,0-0.1,0-0.1c-0.1,0-0.2-0.1-0.4-0.3l-0.6-0.3c-0.2-0.1-0.4-0.2-0.4-0.2c-0.1,0-0.1,0-0.1,0
			c0,0,0,0,0,0.1c0,0,0,0,0,0.1c0,0.1-0.1,0.1-0.2,0.1c-0.1,0-0.1-0.1,0-0.2c0,0,0.1-0.1,0.1-0.2c0,0,0.1-0.1,0.1-0.1
			c0,0,0.1-0.1,0.1-0.3c0-0.1,0.1-0.1,0.1-0.2c0.3-0.5,0.8-0.6,1.4-0.3c0.7,0.4,0.9,0.8,0.6,1.4c0,0-0.1,0.1-0.1,0.2
			c-0.1,0.1-0.1,0.2-0.2,0.2c0,0,0,0.1-0.1,0.2c0,0.1-0.1,0.1-0.1,0.2c0,0,0,0.1-0.1,0.1s-0.1,0-0.1,0c-0.1,0-0.1-0.1,0-0.2
			C56.6,36.9,56.6,36.9,56.6,36.8C56.6,36.8,56.6,36.8,56.6,36.8z M56.7,36.4c0.1,0,0.1,0,0.2,0c0,0,0.1-0.1,0.1-0.2
			c0.1-0.2,0.1-0.4,0-0.5c-0.1-0.2-0.3-0.4-0.5-0.5c-0.2-0.1-0.4-0.2-0.6-0.2c-0.2,0-0.3,0.1-0.4,0.2c-0.1,0.1-0.1,0.1-0.2,0.2
			c-0.1,0.1-0.1,0.2-0.1,0.2c0,0,0.1,0.1,0.2,0.1l0,0L56.7,36.4z"/>
		<path class="st3" d="M56.6,33.4l0.2,0.1l0.1,0c0.1,0,0.1,0,0.1,0l0.1-0.1c0-0.1,0-0.2-0.1-0.2c0,0-0.1,0-0.1,0c-0.1,0-0.1,0-0.1,0
			c-0.1,0-0.1-0.1-0.1-0.2c0-0.1,0.1-0.1,0.2,0l0.1,0l0.2,0.1c0.1,0,0.1,0.1,0.2,0.1c0.1,0,0.2,0.1,0.3,0.1c0,0,0.1,0,0.1,0
			c0.1,0,0.1,0.1,0.1,0.2c0,0.1-0.1,0.1-0.2,0.1c0,0,0,0-0.1,0c0,0-0.1,0-0.1,0c-0.1,0-0.2,0-0.2,0.1l-0.1,0.1c0,0,0,0.1,0,0.1
			c0,0,0,0,0.1,0.1l0.2,0.1c0,0,0.1,0,0.2,0.1l0.2,0.1c0.1,0,0.1,0,0.2,0c0,0,0.1-0.1,0.1-0.2l0.1-0.2c0.1-0.2,0.1-0.3,0.1-0.3
			c0-0.1-0.1-0.1-0.2-0.2c0,0-0.1,0-0.1,0c-0.1,0-0.1,0-0.1,0c-0.1,0-0.1-0.1-0.1-0.2c0-0.1,0.1-0.1,0.2-0.1c0,0,0,0,0.1,0
			c0.1,0,0.1,0.1,0.2,0.1c0,0,0.1,0,0.1,0.1s0.1,0,0.1,0.1c0.1,0,0.1,0.1,0.1,0.1c0,0,0,0.1,0,0.2c0,0,0,0.1-0.1,0.1
			c-0.1,0.1-0.1,0.2-0.2,0.4c0,0,0,0.1-0.1,0.3c0,0.1-0.1,0.2-0.1,0.2c0,0.1,0,0.2-0.1,0.2c0,0.1-0.1,0.1-0.2,0.1
			c-0.1,0-0.1-0.1-0.1-0.2c0,0,0,0,0-0.1c0,0,0-0.1,0-0.1c0,0,0-0.1-0.1-0.1s-0.2-0.1-0.4-0.2l-0.6-0.2c-0.2-0.1-0.4-0.2-0.5-0.2
			c-0.1,0-0.1,0-0.1,0c0,0,0,0,0,0.1c0,0,0,0,0,0.1c0,0.1-0.1,0.1-0.2,0.1c-0.1,0-0.1-0.1-0.1-0.2c0,0,0-0.1,0.1-0.2
			c0,0,0.1-0.1,0.1-0.2c0.1-0.2,0.1-0.4,0.2-0.6c0-0.1,0-0.1,0.1-0.2c0-0.1,0.1-0.2,0.1-0.1c0,0,0.1,0,0.1,0c0,0,0.1,0,0.1,0.1
			c0.1,0.1,0.2,0.1,0.3,0.1l0.2,0.1c0.1,0,0.1,0.1,0.1,0.2c0,0.1-0.1,0.1-0.2,0.1c0,0-0.1,0-0.1-0.1c-0.1,0-0.1,0-0.1-0.1
			c-0.1,0-0.2-0.1-0.3,0c-0.1,0-0.1,0.1-0.1,0.2l-0.1,0.3c0,0.1,0,0.2,0,0.2C56.4,33.3,56.5,33.4,56.6,33.4z"/>
		<path class="st3" d="M58.8,31.9c0,0,0-0.1-0.1-0.1c-0.1,0-0.2-0.1-0.5-0.1l-0.6-0.2c-0.3-0.1-0.4-0.1-0.5-0.1
			c-0.1,0-0.1,0-0.1,0.1c0,0,0,0,0,0.1c0,0,0,0,0,0.1c0,0.1-0.1,0.1-0.1,0.1c-0.1,0-0.1-0.1-0.1-0.2c0,0,0-0.1,0.1-0.2
			c0-0.1,0-0.1,0.1-0.2c0,0,0-0.1,0.1-0.3c0-0.1,0-0.1,0-0.2c0.2-0.6,0.6-0.8,1.3-0.6c0.7,0.2,1,0.6,0.9,1.2c0,0.1,0,0.1-0.1,0.2
			c0,0.1-0.1,0.2-0.1,0.3c0,0,0,0.1,0,0.2c0,0.1,0,0.2,0,0.2c0,0,0,0.1-0.1,0.1c0,0-0.1,0-0.1,0c-0.1,0-0.1-0.1-0.1-0.1
			C58.7,32,58.7,32,58.8,31.9C58.8,31.9,58.8,31.9,58.8,31.9z M58.7,31.5c0.1,0,0.1,0,0.2-0.1c0,0,0.1-0.1,0.1-0.2
			c0.1-0.2,0-0.4-0.1-0.5c-0.1-0.2-0.4-0.3-0.7-0.4c-0.2-0.1-0.4-0.1-0.6,0c-0.2,0-0.3,0.1-0.4,0.3c0,0.1-0.1,0.2-0.1,0.3
			c0,0.1,0,0.2,0,0.3c0,0,0.1,0.1,0.2,0.1l0,0L58.7,31.5z"/>
	</g>
	<g>
		<path class="st3" d="M33.6,25.8c-0.2,0-0.3,0.1-0.3,0.2c0,0.1,0.1,0.2,0.3,0.2c0.3,0,0.5-0.1,0.7-0.3
			C34.1,25.8,33.8,25.8,33.6,25.8z M34,23.4c0.3,0,0.6,0.1,0.8,0.2c0.2,0.1,0.4,0.3,0.4,0.5c0.1,0.2,0.1,0.5,0.1,0.7
			c0,0.3-0.1,0.5-0.2,0.7c0.1,0,0.2,0,0.3,0c0.4,0,0.9,0,1.4-0.2c0.6-0.1,1-0.2,1.3-0.3c0.3-0.1,0.5-0.1,0.5-0.1
			c0,0.2-0.4,0.4-1.2,0.6c-0.8,0.2-1.5,0.3-2,0.3c-0.2,0-0.4,0-0.5,0c-0.4,0.4-0.8,0.6-1.3,0.6c-0.4,0-0.6-0.2-0.7-0.5
			c-0.1-0.3,0-0.5,0.3-0.7c0.1-0.1,0.3-0.1,0.5-0.1c0.2,0,0.5,0.1,1,0.2c0.1-0.2,0.2-0.5,0.2-0.7c0-0.3,0-0.5-0.2-0.7
			c-0.1-0.2-0.4-0.3-0.6-0.3c-0.4,0-0.9,0.3-1.2,1c-0.4,0.7-0.7,1.5-0.9,2.5c-0.2,1-0.5,2.1-0.7,3.3c-0.2,1.2-0.4,2.3-0.5,3.3
			c-0.1,1-0.2,1.8-0.4,2.5c-0.1,0.7-0.2,1-0.3,1c-0.4,0-0.6-1-0.7-2.9s0.1-3.9,0.3-6c0.2-2.1,0.4-3.5,0.6-4.3
			c-0.8,0.4-1.7,0.8-2.5,1.1c-0.9,0.3-1.7,0.5-2.5,0.6c-0.8,0.1-1.6,0.2-2.4,0.2c-0.8,0-1.6,0-2.4-0.1c-0.8-0.1-1.5-0.2-2.3-0.3
			c-0.7-0.1-1.4-0.2-2.1-0.4c-0.7-0.1-1.4-0.2-2-0.3c-0.6-0.1-1.2-0.1-1.8-0.1c-0.6,0-1.1,0.1-1.6,0.2c-0.4,0.1-0.6,0-0.6-0.1
			c0-0.2,0.1-0.3,0.3-0.5c0.1,0,0.1-0.1,0.2-0.1c0.4-0.1,0.8-0.1,1.3-0.1c0.5,0,1,0.1,1.7,0.2c0.6,0.1,1.3,0.2,2,0.4
			c0.7,0.2,1.4,0.3,2.2,0.4c0.8,0.1,1.6,0.2,2.4,0.4c0.8,0.1,1.6,0.2,2.5,0.2c0.9,0,1.8,0,2.6-0.1s1.7-0.3,2.6-0.6
			c0.9-0.3,1.8-0.7,2.6-1.1c0.2-0.2,0.3-0.2,0.5-0.1c0.1,0,0.1,0.1,0.1,0.2c0,0.1-0.1,0.6-0.3,1.5c-0.1,0.9-0.2,2-0.4,3.2
			c-0.1,1.2-0.2,2.5-0.3,3.7c-0.1,1.2-0.1,2.3-0.1,3.1c0,0.9,0.1,1.3,0.2,1.3c0,0,0.1-0.2,0.1-0.7c0-0.5,0.1-1.1,0.2-1.9
			c0.1-0.8,0.2-1.7,0.3-2.6c0.1-1,0.3-1.9,0.5-2.9c0.2-1,0.4-1.8,0.7-2.6c0.3-0.8,0.6-1.4,1-1.9C33.1,23.6,33.5,23.4,34,23.4z"/>
		<path class="st3" d="M40.3,15c1.4,0,2.3,0.7,2.5,2c0.2,1.4,0,2.8-0.8,4.5c-0.8,1.6-1.8,2.8-2.9,3.4c-0.2,0.1-0.4,0.2-0.6,0.3
			c0.1,0.6,0.3,1.1,0.4,1.6c0.1-0.3,0.2-0.6,0.2-0.8c0.1-0.3,0.2-0.5,0.4-0.8c0.2-0.3,0.3-0.5,0.6-0.6c0.2-0.2,0.5-0.2,0.8-0.2
			c0.3,0,0.6,0.1,0.7,0.4c0.2,0.3,0.2,0.6,0.2,1c0,0.2,0,0.3-0.1,0.5c0.7-0.3,1.5-0.6,2.5-0.7c1-0.1,2-0.1,3.1,0
			c1.1,0.1,2.2,0.2,3.4,0.4c1.2,0.2,2.4,0.3,3.5,0.5c1.2,0.2,2.3,0.3,3.3,0.4c1,0.1,2,0.1,3,0c0.9-0.1,1.7-0.3,2.3-0.7
			c0.2-0.1,0.3-0.1,0.4,0c0.1,0.1,0.1,0.1,0.1,0.3c0,0.1-0.1,0.2-0.2,0.3c-0.6,0.3-1.3,0.5-2.3,0.6c-0.9,0.1-2,0.1-3.1-0.1
			c-1.1-0.1-2.2-0.3-3.4-0.5c-1.2-0.2-2.4-0.4-3.6-0.6c-1.2-0.2-2.4-0.3-3.5-0.4c-1.1-0.1-2.2-0.1-3.1,0.1s-1.8,0.4-2.4,0.8
			c-0.1,0.2-0.3,0.5-0.5,0.7c-0.2,0.2-0.4,0.4-0.5,0.6l-0.2,0.2v0c-0.1,0.1-0.1,0.2-0.2,0.1c-0.1-0.1-0.1-0.2,0-0.3
			c0.2-0.4,0.6-0.8,1-1.1c0.2-0.4,0.3-0.8,0.3-1c0-0.6-0.2-0.9-0.5-0.9c-0.7,0-1.3,0.9-1.7,2.6c0.1,0.4,0.3,0.7,0.4,1
			c0.1,0.2,0.1,0.3-0.1,0.4c-0.2,0.1-0.3,0-0.5-0.3c0,0,0,0,0-0.1c-0.2-0.5-0.5-1.2-0.7-2c-0.2-0.8-0.4-1.8-0.6-2.8
			c-0.2-1-0.3-2-0.3-3c0-1,0.1-1.9,0.2-2.8c0.2-0.8,0.5-1.5,0.9-2C38.9,15.3,39.6,15,40.3,15z M40.3,15.5c-0.6,0-1,0.2-1.4,0.6
			c-0.4,0.4-0.6,0.9-0.8,1.6c-0.1,0.7-0.2,1.4-0.2,2.3c0,0.9,0,1.7,0.1,2.6c0.1,0.9,0.2,1.7,0.4,2.5c0.2-0.1,0.4-0.2,0.6-0.4
			c1.1-0.6,2-1.7,2.7-3.2c0.7-1.5,1-2.9,0.8-4.1c-0.2-1.2-0.8-1.9-1.9-2C40.5,15.5,40.4,15.5,40.3,15.5z"/>
	</g>
	<g>
		<path class="st3" d="M36.5,49.5c-3.3,0-6.5-0.6-9.5-1.9c-2.9-1.2-5.5-3-7.8-5.2c-2.2-2.2-4-4.9-5.2-7.8c-1.3-3-1.9-6.2-1.9-9.5
			s0.6-6.5,1.9-9.5c1.2-2.9,3-5.5,5.2-7.8c2.2-2.2,4.9-4,7.8-5.2c3-1.3,6.2-1.9,9.5-1.9v0.3c-3.3,0-6.4,0.6-9.4,1.9
			c-2.9,1.2-5.5,3-7.7,5.2s-4,4.8-5.2,7.7c-1.3,3-1.9,6.1-1.9,9.4s0.6,6.4,1.9,9.4c1.2,2.9,3,5.5,5.2,7.7s4.8,4,7.7,5.2
			c3,1.3,6.1,1.9,9.4,1.9s6.4-0.6,9.4-1.9c2.9-1.2,5.5-3,7.7-5.2c2.2-2.2,4-4.8,5.2-7.7c1.3-3,1.9-6.1,1.9-9.4H61
			c0,3.3-0.6,6.5-1.9,9.5c-1.2,2.9-3,5.5-5.2,7.8c-2.2,2.2-4.9,4-7.8,5.2C43,48.8,39.8,49.5,36.5,49.5z"/>
	</g>
</g>
</svg>
