<?xml version="1.0" encoding="utf-8"?>
<!-- Generator: Adobe Illustrator 25.2.0, SVG Export Plug-In . SVG Version: 6.00 Build 0)  -->
<svg version="1.1" id="Layer_1" xmlns="http://www.w3.org/2000/svg" xmlns:xlink="http://www.w3.org/1999/xlink" x="0px" y="0px"
	 viewBox="0 0 2000 2000" style="enable-background:new 0 0 2000 2000;" xml:space="preserve">
<style type="text/css">
	.st0{fill:#E2E21D;}
	.st1{fill:#EE2C29;}
	.st2{fill:#FFFFFF;}
</style>
<rect class="st0" width="2000" height="2000"/>
<g>
	<g>
		<path class="st1" d="M1024.64,1474.19l-4.06,0.2c-0.76,0.04-1.23,0.19-1.4,0.46c-0.18,0.27-0.24,0.89-0.19,1.85l0.04,0.94
			l0.35,7.12c0.45,3.58,1.32,5.34,2.62,5.28c0.11,0,0.59-0.08,1.46-0.21c0.27-0.11,0.67-0.18,1.21-0.2
			c0.76-0.04,1.41,0.16,1.94,0.59c0.54,0.43,0.82,0.98,0.85,1.65c0.04,0.82-0.22,1.51-0.79,2.09c-0.57,0.58-1.29,0.89-2.15,0.93
			c-0.22,0.01-1.55-0.12-4.01-0.38c-0.82-0.15-1.99-0.19-3.51-0.12c-0.92,0.04-2.23,0.25-3.92,0.62s-2.89,0.57-3.6,0.61
			c-0.87,0.04-1.6-0.2-2.19-0.72c-0.6-0.52-0.91-1.19-0.95-2.01c-0.08-1.58,0.75-2.42,2.48-2.5c0.54-0.03,0.95,0,1.23,0.08
			c0.87,0.05,1.36,0.08,1.47,0.07c1.03-0.05,1.64-0.79,1.85-2.21c0.2-1.42,0.17-4.88-0.1-10.37l-0.66-13.61
			c-0.27-5.54-0.58-9.01-0.92-10.4c-0.34-1.4-1.02-2.07-2.05-2.02c-0.27,0.01-0.7,0.07-1.29,0.17c-0.59,0.1-1.05,0.16-1.38,0.18
			c-1.73,0.08-2.64-0.69-2.72-2.32c-0.09-1.87,0.89-2.86,2.95-2.96c0.87-0.04,2.16,0.03,3.88,0.21c1.72,0.18,3.01,0.25,3.88,0.21
			c1.41-0.07,3.6-0.27,6.57-0.61c1.51-0.17,3.27-0.3,5.28-0.4c4.5-0.22,8.01,0.81,10.54,3.09c2.53,2.28,3.9,5.65,4.12,10.11
			c0.28,5.71-1.64,9.74-5.76,12.1C1033.19,1473.13,1029.51,1473.95,1024.64,1474.19z M1024.66,1451.2c-2.71,0.13-4.52,0.5-5.45,1.09
			c-0.92,0.6-1.34,1.71-1.26,3.34l0.54,11c0.07,1.49,0.21,2.33,0.41,2.54c0.2,0.21,0.65,0.29,1.36,0.26c1.79,0.06,3.4,0.05,4.8-0.02
			c7.37-0.36,10.91-3.49,10.62-9.38c-0.16-3.26-1.12-5.59-2.87-7C1031.06,1451.63,1028.34,1451.02,1024.66,1451.2z"/>
		<path class="st1" d="M1087.2,1470.14l-0.6-3.62c-0.14-0.85-0.32-1.37-0.54-1.55c-0.22-0.18-0.68-0.22-1.38-0.1
			c-0.28,0-0.9,0.07-1.86,0.23l-12.68,2.09c-0.59,0.1-0.94,0.28-1.07,0.54c-0.27,0.34-0.27,1.36,0.01,3.06l0.38,2.27l1.16,7.03
			c0.85,3.51,1.92,5.16,3.21,4.95c0.11-0.02,0.58-0.14,1.42-0.38c0.31-0.15,0.7-0.26,1.18-0.34c0.75-0.12,1.41,0,2,0.36
			c0.58,0.37,0.93,0.88,1.04,1.54c0.13,0.81-0.05,1.53-0.55,2.17c-0.5,0.64-1.18,1.03-2.03,1.17c-0.59,0.1-1.93,0.15-4.02,0.15
			c-1.48,0-2.71,0.08-3.67,0.24c-0.86,0.14-2.09,0.49-3.7,1.05c-1.61,0.56-2.85,0.91-3.7,1.05c-0.86,0.14-1.62-0.01-2.3-0.46
			c-0.68-0.45-1.08-1.07-1.22-1.88c-0.26-1.56,0.47-2.49,2.18-2.77c0.53-0.09,0.94-0.11,1.23-0.06c0.87-0.04,1.36-0.08,1.47-0.1
			c1.02-0.17,1.54-0.97,1.58-2.41c0.04-1.44-0.39-4.88-1.29-10.33l-2.22-13.5c-0.9-5.49-1.61-8.92-2.1-10.27
			c-0.5-1.35-1.26-1.95-2.27-1.78c-0.27,0.04-0.69,0.17-1.26,0.39c-0.57,0.22-1.01,0.35-1.33,0.4c-1.71,0.28-2.7-0.38-2.97-1.99
			c-0.3-1.85,0.56-2.94,2.59-3.27c0.96-0.16,2.11-0.23,3.43-0.2c1.54,0.04,3.17-0.08,4.89-0.37c0.8-0.13,1.95-0.45,3.43-0.97
			c1.48-0.51,2.6-0.83,3.35-0.95c0.86-0.14,1.62,0.01,2.3,0.46c0.68,0.45,1.08,1.05,1.21,1.81c0.11,0.66-0.05,1.27-0.48,1.83
			c-0.43,0.56-1.02,0.9-1.77,1.02c-0.32,0.05-0.77,0.07-1.35,0.04c-0.58-0.03-1.03-0.01-1.35,0.04c-1.28,0.21-1.76,2.14-1.44,5.78
			c-0.01-0.05,0.38,2.3,1.16,7.03l0.09,0.57l0.23,0.91c0.2,0.89,0.53,1.4,0.99,1.52c0.46,0.12,1.68,0.01,3.66-0.31l9.31-1.53
			c1.82-0.3,2.92-0.64,3.29-1.02c0.38-0.38,0.46-1.21,0.25-2.49l-0.09-0.57c-0.78-4.74-1.17-7.08-1.16-7.03
			c-0.86-3.55-1.93-5.23-3.22-5.02c-0.38,0.06-0.86,0.2-1.46,0.42c-0.6,0.22-0.97,0.34-1.13,0.37c-0.75,0.12-1.42-0.01-2-0.4
			c-0.59-0.39-0.93-0.92-1.04-1.58c-0.13-0.8,0.07-1.52,0.6-2.14c0.53-0.62,1.22-1,2.08-1.15c0.86-0.14,2.18-0.22,3.96-0.25
			c1.78-0.03,3.13-0.11,4.04-0.26c0.86-0.14,2.07-0.47,3.63-1c1.56-0.52,2.69-0.84,3.39-0.96c0.86-0.14,1.62,0.01,2.3,0.46
			c0.68,0.45,1.08,1.05,1.21,1.81c0.11,0.66-0.05,1.27-0.48,1.83c-0.43,0.56-1.02,0.9-1.77,1.02c-0.32,0.05-0.77,0.07-1.35,0.04
			c-0.58-0.02-1.03-0.01-1.35,0.04c-1.29,0.21-1.76,2.14-1.44,5.78c-0.01-0.05,0.38,2.3,1.16,7.03l2.22,13.5l1.16,7.03
			c0.85,3.51,1.92,5.16,3.21,4.94c0.11-0.02,0.58-0.14,1.42-0.38c0.31-0.15,0.7-0.26,1.18-0.34c0.75-0.12,1.41,0,2,0.36
			c0.58,0.37,0.93,0.88,1.04,1.54c0.13,0.81-0.05,1.53-0.55,2.17c-0.5,0.64-1.2,1.04-2.11,1.19c-0.8,0.13-2.08,0.2-3.84,0.2
			c-1.76,0-3.12,0.08-4.08,0.23c-0.8,0.13-1.98,0.47-3.54,1.02s-2.74,0.89-3.54,1.02c-0.86,0.14-1.62-0.01-2.3-0.46
			c-0.68-0.45-1.08-1.07-1.22-1.88c-0.11-0.66,0.07-1.26,0.53-1.8c0.46-0.54,1.04-0.86,1.74-0.98c0.48-0.08,0.89-0.1,1.23-0.06
			c0.76-0.03,1.25-0.06,1.47-0.1c1.28-0.21,1.77-2.12,1.45-5.71L1087.2,1470.14z"/>
		<path class="st1" d="M1137.34,1476.8c-5.11,1.47-9.81,0.47-14.11-2.99s-7.49-8.83-9.59-16.12c-2.09-7.29-2.24-13.55-0.45-18.79
			c1.8-5.24,5.25-8.59,10.36-10.06c5.11-1.47,9.8-0.47,14.07,3c4.27,3.47,7.46,8.87,9.57,16.2c2.1,7.29,2.25,13.54,0.48,18.74
			C1145.89,1472,1142.45,1475.33,1137.34,1476.8z M1125.03,1433.67c-3.49,1-5.71,3.46-6.64,7.38c-0.94,3.92-0.53,8.89,1.2,14.94
			c1.71,5.95,4,10.35,6.88,13.19c2.88,2.84,5.98,3.79,9.32,2.83c3.44-0.99,5.64-3.44,6.6-7.37c0.96-3.92,0.58-8.88-1.14-14.88
			c-1.71-5.95-4.01-10.36-6.89-13.23C1131.48,1433.67,1128.37,1432.71,1125.03,1433.67z"/>
		<path class="st1" d="M1175.32,1423.01l7.63,18.74c2.08,5.11,3.51,8.27,4.3,9.48c0.79,1.21,1.66,1.62,2.61,1.23
			c0.15-0.06,0.56-0.28,1.23-0.65c0.26-0.21,0.65-0.42,1.15-0.62c1.61-0.65,2.71-0.25,3.31,1.22c0.31,0.76,0.29,1.5-0.05,2.24
			c-0.35,0.74-0.92,1.27-1.72,1.6c-0.45,0.18-1.7,0.51-3.73,0.97c-1.45,0.33-2.67,0.7-3.68,1.11c-0.8,0.33-1.92,0.94-3.34,1.83
			c-1.42,0.89-2.49,1.48-3.19,1.76c-0.8,0.33-1.59,0.35-2.35,0.06c-0.76-0.29-1.29-0.81-1.6-1.56c-0.6-1.47-0.07-2.54,1.59-3.21
			c0.45-0.18,0.85-0.29,1.18-0.33c0.74-0.2,1.21-0.34,1.41-0.42c0.95-0.39,1.28-1.29,0.97-2.69c-0.31-1.41-1.51-4.67-3.59-9.79
			l-6.39-15.7c-1.52-3.74-2.68-6-3.46-6.77c-0.78-0.77-2.03-0.81-3.74-0.12c-1.76,0.72-2.87,1.44-3.33,2.17
			c-0.46,0.73-0.43,1.74,0.09,3.03c0.18,0.44,0.7,1.58,1.56,3.41c0.86,1.83,1.42,3.05,1.67,3.67c0.96,2.36,0.56,3.89-1.2,4.61
			c-1.66,0.68-2.89,0.04-3.68-1.91c0.02,0.04-0.23-0.65-0.75-2.1c-0.78-2.16-1.4-3.82-1.87-4.97c-0.29-0.71-0.86-1.97-1.72-3.79
			c-0.43-0.91-0.8-1.74-1.1-2.49c-0.63-1.55-0.2-2.63,1.3-3.24c0.45-0.18,1.58-0.55,3.39-1.11c1.81-0.56,4.5-1.56,8.05-3l2.25-0.92
			l4.35-1.77c2.13-0.93,3.64-1.65,4.54-2.16c1.65-0.83,3.19-1.53,4.64-2.12c1.5-0.61,2.56-0.16,3.17,1.35
			c0.11,0.27,0.38,1.01,0.81,2.24c0.65,1.86,1.25,3.46,1.79,4.79c0.42,1.02,1.05,2.45,1.92,4.27c0.43,0.91,0.74,1.59,0.92,2.04
			c0.81,2,0.34,3.36-1.42,4.07c-1.66,0.67-2.94-0.1-3.84-2.32c-0.05-0.13-0.21-0.58-0.45-1.33c-0.25-0.75-0.46-1.35-0.64-1.8
			l-1.63-4c-0.56-1.38-1.23-2.22-2.02-2.52c-0.79-0.3-1.89-0.16-3.32,0.42c-2.07,0.84-3.16,1.86-3.25,3.03
			C1174.06,1419.56,1174.47,1420.92,1175.32,1423.01z"/>
		<path class="st1" d="M1234.47,1437.26c-4.68,2.52-9.49,2.54-14.42,0.06c-4.93-2.47-9.19-7.05-12.78-13.73
			c-3.59-6.68-5.06-12.77-4.41-18.27c0.65-5.5,3.31-9.5,8-12.02c4.68-2.52,9.48-2.53,14.38-0.05c4.91,2.49,9.17,7.09,12.78,13.81
			c3.59,6.68,5.07,12.75,4.43,18.22C1241.82,1430.75,1239.16,1434.74,1234.47,1437.26z M1213.32,1397.7
			c-3.2,1.72-4.84,4.59-4.93,8.62c-0.09,4.02,1.36,8.81,4.34,14.34c2.93,5.45,6.1,9.27,9.52,11.44c3.41,2.17,6.65,2.43,9.71,0.79
			c3.15-1.69,4.78-4.56,4.89-8.6c0.11-4.04-1.31-8.8-4.27-14.3c-2.93-5.46-6.11-9.28-9.53-11.47
			C1219.62,1396.34,1216.37,1396.06,1213.32,1397.7z"/>
		<path class="st1" d="M1272.95,1368.76c2.75,3.99,2.7,8.22-0.15,12.69c6.51-1.74,11.41-0.22,14.7,4.56
			c2.31,3.36,3.04,7.04,2.17,11.05c-0.86,4-3.06,7.22-6.59,9.65c-1.21,0.83-3.11,1.94-5.71,3.32c-1.88,1-3.47,1.95-4.76,2.84
			c-0.71,0.49-1.68,1.33-2.9,2.52c-1.22,1.19-2.17,2.02-2.84,2.48c-0.72,0.49-1.46,0.67-2.25,0.54c-0.78-0.13-1.4-0.53-1.87-1.21
			c-0.9-1.3-0.63-2.45,0.8-3.43c0.45-0.31,0.81-0.5,1.09-0.57c0.77-0.41,1.2-0.65,1.29-0.71c0.85-0.58,0.98-1.53,0.41-2.85
			c-0.58-1.32-2.42-4.24-5.54-8.77l-7.73-11.22c-3.15-4.57-5.23-7.36-6.25-8.37c-1.02-1.01-1.96-1.22-2.81-0.63
			c-0.22,0.15-0.56,0.43-1.01,0.83c-0.45,0.4-0.81,0.69-1.08,0.87c-1.43,0.99-2.61,0.8-3.53-0.54c-1.06-1.54-0.75-2.9,0.95-4.07
			c0.76-0.52,1.99-1.21,3.68-2.05c1.69-0.84,2.92-1.53,3.68-2.05c1.61-1.11,3.18-2.31,4.73-3.61c1.54-1.29,2.94-2.38,4.19-3.24
			c3.26-2.25,6.48-3.18,9.67-2.81C1268.46,1364.36,1271.02,1365.95,1272.95,1368.76z M1253.48,1380.07l4.7,6.82
			c0.44,0.63,0.78,0.99,1.04,1.08c0.26,0.08,0.67-0.07,1.26-0.47l2.21-1.52c3.53-2.43,5.72-4.65,6.57-6.67
			c0.85-2.01,0.49-4.17-1.09-6.46c-2.75-3.99-6.72-4.21-11.9-0.64c-2.23,1.54-3.54,2.83-3.91,3.87
			C1251.99,1377.12,1252.36,1378.45,1253.48,1380.07z M1266.76,1389.02c-1.92,1.32-2.96,2.07-3.11,2.23
			c-0.98,0.97-1.13,1.95-0.45,2.93l6.17,8.95c1.43,1.99,2.74,3.05,3.93,3.19c1.19,0.14,2.95-0.59,5.28-2.2
			c6.15-4.23,7.38-9.02,3.71-14.36c-2.34-3.4-5.17-4.83-8.49-4.29C1272.14,1385.75,1269.79,1386.93,1266.76,1389.02z"/>
		<path class="st1" d="M1313.84,1336c3.91,4.49,4.24,9.13,1,13.92c2.34-0.95,4.11-1.27,5.32-0.95c1.21,0.32,2.82,1.51,4.83,3.57
			l2.17,2.5l2.06,2.12c2.26,2.43,3.98,3.13,5.16,2.09c0.2-0.18,0.5-0.54,0.9-1.07c0.4-0.54,0.62-0.82,0.66-0.86
			c1.31-1.14,2.51-1.08,3.62,0.19c1.2,1.38,0.94,2.81-0.78,4.31l-0.61,0.53l-1.62,1.12l-1.64,1.33c-1.55,1.28-3.11,1.55-4.7,0.8
			c-1.59-0.75-3.98-2.88-7.18-6.4l-2.22-2.55c-1.71-1.88-3.29-2.79-4.73-2.71c-1.44,0.08-3.37,1.17-5.79,3.27l-0.49,0.43l-2.97,2.78
			c-0.54,0.54-0.78,1-0.73,1.4c0.06,0.4,0.5,1.07,1.31,2.01l1.13,1.3c3.62,4.16,6,6.69,7.14,7.58c1.13,0.89,2.09,1,2.87,0.32
			c0.08-0.07,0.4-0.45,0.96-1.12c0.11-0.29,0.37-0.61,0.78-0.96c1.31-1.14,2.48-1.11,3.52,0.08c0.54,0.62,0.76,1.33,0.67,2.14
			c-0.09,0.81-0.46,1.5-1.11,2.07c-0.57,0.5-1.59,1.23-3.06,2.18c-1.47,0.96-2.55,1.74-3.24,2.35c-0.66,0.57-1.52,1.48-2.59,2.73
			c-1.07,1.25-1.91,2.14-2.53,2.67c-0.66,0.57-1.38,0.83-2.17,0.79c-0.79-0.04-1.46-0.37-1.99-0.99c-1.04-1.2-0.91-2.36,0.4-3.5
			c0.41-0.36,0.76-0.57,1.06-0.64c0.75-0.46,1.16-0.73,1.25-0.8c0.78-0.68,0.8-1.64,0.08-2.89c-0.73-1.25-2.91-3.96-6.54-8.13
			l-9-10.34c-3.66-4.21-6.06-6.76-7.2-7.65c-1.14-0.89-2.09-1-2.87-0.32c-0.21,0.18-0.49,0.52-0.84,1.02
			c-0.36,0.5-0.66,0.86-0.9,1.07c-1.31,1.14-2.5,1.09-3.57-0.14c-1.23-1.41-1.07-2.79,0.49-4.15c0.65-0.57,1.73-1.33,3.24-2.29
			c1.5-0.96,2.6-1.74,3.3-2.34c1.06-0.93,2.6-2.38,4.62-4.36c2.02-1.98,3.56-3.43,4.62-4.36c3.11-2.71,6.21-3.99,9.31-3.86
			C1308.37,1331.42,1311.23,1332.99,1313.84,1336z M1301.04,1356.49c0.69,0.8,1.49,0.84,2.38,0.13l1.27-1.01
			c0.15-0.07,0.37-0.23,0.66-0.48c0.2-0.18,0.54-0.5,1-0.96c1.75-1.71,3.13-3.1,4.14-4.17c1.06-1.43,1.5-3.02,1.33-4.79
			c-0.17-1.76-0.93-3.42-2.28-4.98c-3.59-4.13-7.76-4.13-12.51,0c-2.13,1.85-3.45,3.35-3.96,4.5c-0.51,1.15-0.36,2.19,0.46,3.13
			L1301.04,1356.49z"/>
		<path class="st1" d="M1348.46,1331.21l-16.31-27.4c-0.74-1.33-1.15-2.24-1.22-2.74c-0.21-0.99,0.11-1.95,0.94-2.87
			c1.02-1.13,1.95-1.68,2.79-1.65c0.84,0.03,2.63,0.72,5.35,2.08l30.71,15.08c1.97,0.9,3.34,1.4,4.11,1.51
			c0.77,0.11,1.41-0.11,1.92-0.68c0.14-0.16,0.44-0.55,0.87-1.18c0.11-0.12,0.22-0.28,0.33-0.47c0.14-0.16,0.24-0.26,0.27-0.3
			c1.16-1.29,2.35-1.39,3.56-0.29c1.39,1.25,1.47,2.57,0.23,3.93c-0.15,0.16-1.12,0.96-2.93,2.39c-0.91,0.72-1.78,1.54-2.61,2.47
			c-0.65,0.72-1.45,1.82-2.38,3.28s-1.59,2.42-1.99,2.86c-0.51,0.56-1.16,0.89-1.95,0.98c-0.79,0.09-1.47-0.12-2.04-0.64
			c-1.25-1.12-1.27-2.35-0.08-3.68c0.22-0.24,0.38-0.42,0.49-0.54c0.11-0.12,0.24-0.26,0.38-0.42c0.15-0.16,0.24-0.26,0.27-0.3
			c0.83-0.93,0.69-1.9-0.44-2.92c-0.6-0.54-1.45-1.08-2.55-1.64l-4.89-2.44c-0.71-0.35-1.2-0.49-1.47-0.44s-0.64,0.34-1.11,0.86
			l-6.59,7.31c-0.76,0.85-0.69,2.01,0.23,3.49l2.79,4.49c0.74,1.18,1.41,2.04,2.01,2.58c0.67,0.61,1.34,0.55,1.99-0.18
			c0.25-0.28,0.44-0.48,0.54-0.6c0.11-0.12,0.24-0.26,0.38-0.42c0.18-0.2,0.29-0.32,0.33-0.36c1.16-1.29,2.38-1.36,3.64-0.22
			c1.34,1.21,1.41,2.47,0.21,3.8c-0.47,0.52-1.32,1.25-2.55,2.19c-1.23,0.94-2.14,1.73-2.72,2.37c-0.8,0.89-1.64,2.03-2.51,3.43
			c-0.88,1.4-1.53,2.34-1.97,2.83c-1.31,1.45-2.62,1.58-3.94,0.39c-1.28-1.16-1.36-2.36-0.24-3.61c0.22-0.24,0.54-0.53,0.98-0.87
			c0.43-0.34,0.74-0.61,0.92-0.81c0.58-0.64,0.6-1.74,0.06-3.29C1351.75,1337.01,1350.47,1334.56,1348.46,1331.21z M1353.92,1311.71
			l-16.21-8.58l9.73,15.77c0.21,0.34,0.37,0.55,0.48,0.65c0.46,0.42,1.04,0.24,1.73-0.52l4.74-5.26c0.62-0.68,0.71-1.22,0.28-1.61
			C1354.56,1312.07,1354.31,1311.92,1353.92,1311.71z"/>
		<path class="st1" d="M1363.98,1263.09l40.52,10.42l-19.46-13.76c-3.92-2.77-5.86-4.14-5.82-4.12c-3.13-1.88-5.08-2.3-5.83-1.23
			c-0.19,0.27-0.4,0.67-0.63,1.2c-0.23,0.53-0.44,0.93-0.63,1.2c-0.44,0.62-1,1-1.69,1.14c-0.69,0.14-1.31,0.02-1.86-0.37
			c-0.63-0.44-0.99-1.07-1.1-1.87c-0.11-0.81,0.09-1.56,0.59-2.27c0.41-0.57,1.25-1.47,2.53-2.7c0.72-0.69,1.5-1.63,2.35-2.82
			c0.94-1.33,1.58-2.4,1.93-3.22c0.63-1.48,1.12-2.46,1.47-2.95c0.41-0.57,0.97-0.92,1.7-1.04c0.73-0.11,1.41,0.05,2.03,0.49
			c1.37,0.97,1.58,2.13,0.63,3.47c-0.13,0.18-0.36,0.45-0.71,0.81s-0.59,0.65-0.75,0.88c-0.7,0.99-0.19,2.18,1.52,3.59l2.74,2.24
			l4.41,3.12l21.57,15.26c2.74,1.94,3.32,4.04,1.72,6.3c-1.41,1.99-3.68,2.58-6.8,1.76l-38.91-10.08l20.04,14.18
			c4.51,3.19,7.42,5.08,8.73,5.68c1.31,0.6,2.27,0.47,2.86-0.37c0.09-0.13,0.33-0.53,0.71-1.19c0.13-0.31,0.35-0.68,0.66-1.12
			c1-1.42,2.15-1.67,3.44-0.75c0.63,0.44,1,1.08,1.13,1.89c0.12,0.82-0.05,1.56-0.52,2.23c-0.12,0.18-0.97,0.97-2.55,2.38
			c-0.53,0.49-1.27,1.39-2.21,2.72c-0.78,1.11-1.48,2.31-2.08,3.61c-0.86,1.85-1.4,2.93-1.62,3.24c-0.5,0.71-1.14,1.14-1.92,1.28
			s-1.5-0.02-2.17-0.49c-1.29-0.92-1.44-2.08-0.44-3.5c0.31-0.44,0.58-0.75,0.79-0.93c0.56-0.67,0.87-1.04,0.93-1.13
			c0.59-0.84,0.39-1.78-0.61-2.82c-1-1.04-3.75-3.15-8.26-6.34l-11.17-7.9c-4.55-3.21-7.47-5.12-8.79-5.72
			c-1.31-0.6-2.27-0.47-2.86,0.37c-0.16,0.22-0.36,0.61-0.6,1.17c-0.25,0.56-0.46,0.97-0.65,1.23c-1,1.42-2.17,1.65-3.5,0.71
			c-0.67-0.47-1.05-1.09-1.15-1.86c-0.1-0.77,0.1-1.51,0.6-2.22c0.34-0.49,1.06-1.25,2.14-2.27c0.89-0.83,1.72-1.81,2.5-2.91
			c0.12-0.18,0.67-1.19,1.62-3.04c0.24-0.43,0.46-0.77,0.65-1.04C1361.71,1262.92,1362.64,1262.74,1363.98,1263.09z"/>
		<path class="st1" d="M1424.09,1247.29c0.49-0.91,0.18-1.82-0.94-2.73c-1.12-0.91-4.11-2.69-8.97-5.33l-12.05-6.53
			c-4.9-2.66-8.04-4.21-9.42-4.64c-1.38-0.44-2.31-0.2-2.8,0.7c-0.13,0.24-0.3,0.64-0.53,1.2c-0.22,0.56-0.41,0.98-0.56,1.27
			c-0.83,1.53-1.94,1.91-3.33,1.15c-1.6-0.87-1.91-2.21-0.93-4.02c0.46-0.86,1.35-2.14,2.65-3.84c0.74-0.96,1.42-2.01,2.04-3.15
			c0.44-0.81,1.29-2.63,2.55-5.46c0.51-1.14,1.1-2.33,1.77-3.57c6.2-11.44,16.38-13.33,30.51-5.67c14.14,7.67,18,17.41,11.59,29.24
			c-0.54,1-1.36,2.31-2.46,3.94c-1.65,2.44-2.71,4.08-3.17,4.94c-0.41,0.76-0.88,1.84-1.4,3.22c-0.74,1.95-1.22,3.13-1.45,3.56
			c-0.41,0.76-1,1.26-1.76,1.5c-0.76,0.24-1.49,0.16-2.21-0.23c-1.39-0.75-1.68-1.89-0.85-3.42c0.26-0.48,0.53-0.79,0.8-0.95
			C1423.73,1247.77,1424.04,1247.38,1424.09,1247.29z M1424.55,1238.28c1.63,0.82,3.02,0.68,4.17-0.43c0.64-0.58,1.57-2,2.79-4.25
			c2.13-3.92,2.42-7.54,0.89-10.85c-2.04-4.39-5.87-8.11-11.48-11.15c-4.51-2.45-8.6-3.66-12.24-3.63c-3.65,0.03-6.51,1.27-8.6,3.71
			c-1.22,1.44-2.3,3.04-3.26,4.8c-1.32,2.43-1.72,4.19-1.22,5.26c0.32,0.73,1.57,1.68,3.76,2.87l0.38,0.21L1424.55,1238.28z"/>
		<path class="st1" d="M1424.24,1176.55l4.14,1.66l1.43,0.49c1.27,0.45,2.08,0.23,2.44-0.67l1.17-2.92
			c0.82-2.04,0.18-3.49-1.91-4.32c-0.67-0.27-1.24-0.46-1.7-0.59c-1.35-0.37-2.12-0.58-2.3-0.66c-1.69-0.68-2.24-1.77-1.63-3.28
			c0.58-1.46,1.92-1.77,4.02-0.93l1.4,0.56l3.49,1.75c1.16,0.58,2.37,1.12,3.62,1.62c2.18,0.88,4.41,1.64,6.68,2.3
			c0.93,0.27,1.52,0.46,1.79,0.57c1.78,0.71,2.37,1.83,1.77,3.34c-0.59,1.46-1.79,1.82-3.62,1.09c-0.4-0.16-1-0.46-1.81-0.9
			c-0.81-0.44-1.41-0.74-1.81-0.9c-1.87-0.75-3.19-0.18-3.95,1.72l-1.26,3.14c-0.28,0.7-0.31,1.18-0.11,1.43
			c0.21,0.26,0.94,0.64,2.19,1.14l4.7,1.88c0.49,0.2,1.63,0.65,3.42,1.37l3.22,1.29c1.52,0.61,2.65,0.57,3.4-0.13
			c0.51-0.5,1.14-1.68,1.88-3.54l1.63-4.08c1.33-3.32,1.81-5.67,1.42-7.05c-0.38-1.38-1.85-2.58-4.4-3.6
			c-0.58-0.23-1.46-0.53-2.65-0.88c-1.18-0.36-2.06-0.65-2.65-0.89c-2.01-0.81-2.69-2.04-2.02-3.7c0.67-1.66,1.89-2.13,3.67-1.42
			c0.31,0.12,1.03,0.47,2.14,1.04c1.39,0.91,3.07,1.76,5.03,2.54c0.62,0.25,1.58,0.63,2.87,1.15c1.29,0.52,2.25,0.9,2.87,1.15
			c1.2,0.48,1.93,1.09,2.17,1.83c0.25,0.74,0.08,1.83-0.5,3.29c-0.34,0.85-0.84,1.9-1.5,3.15c-1.09,2.07-2.46,5.18-4.13,9.34
			c-0.14,0.35-0.89,2.41-2.24,6.17c-0.73,2.09-1.23,3.58-1.48,4.47c-0.5,1.89-0.91,3.24-1.23,4.04c-0.78,1.96-2.07,2.58-3.85,1.86
			c-1.47-0.59-1.88-1.69-1.24-3.3c0.2-0.5,0.4-0.86,0.59-1.08c0.41-0.77,0.64-1.2,0.68-1.31c0.38-0.96-0.03-1.82-1.24-2.6
			c-1.21-0.78-4.37-2.19-9.47-4.23l-12.65-5.07c-5.15-2.06-8.43-3.23-9.84-3.5c-1.41-0.27-2.31,0.07-2.69,1.03
			c-0.1,0.25-0.23,0.67-0.38,1.25c-0.16,0.58-0.29,1.02-0.42,1.32c-0.65,1.61-1.73,2.11-3.24,1.51c-1.74-0.7-2.22-2-1.46-3.91
			c0.18-0.45,1.03-2.04,2.53-4.77c0.56-1,1.15-2.29,1.77-3.85c1.59-3.98,3.13-8.27,4.62-12.88c0.33-1.33,0.89-3,1.7-5.02
			c0.89-2.21,1.89-3.24,3.02-3.08c0.49,0.08,1.13,0.28,1.93,0.6c0.62,0.25,1.44,0.61,2.44,1.07c2.79,1.29,5.11,2.22,6.95,2.79
			l3.3,1.06c1.83,0.73,2.43,1.88,1.8,3.44c-0.69,1.71-2.02,2.17-4.01,1.37c-0.57-0.23-1.39-0.59-2.45-1.07
			c-1.06-0.48-1.88-0.84-2.45-1.07c-2.43-0.97-4.22-1.23-5.38-0.76c-1.16,0.47-2.2,1.85-3.13,4.16l-2.32,5.79
			c-0.8,2-0.92,3.4-0.35,4.18C1419.28,1174.29,1421.12,1175.3,1424.24,1176.55z"/>
		<path class="st1" d="M1469.37,1144.05c0.27-0.99-0.24-1.81-1.54-2.44c-1.3-0.63-4.62-1.67-9.95-3.12l-13.23-3.59
			c-5.38-1.46-8.79-2.25-10.23-2.36c-1.44-0.11-2.3,0.33-2.57,1.33c-0.07,0.26-0.15,0.69-0.24,1.29s-0.17,1.05-0.26,1.36
			c-0.46,1.68-1.45,2.3-2.98,1.89c-1.76-0.48-2.37-1.71-1.83-3.7c0.26-0.94,0.82-2.39,1.7-4.34c0.5-1.1,0.92-2.28,1.26-3.54
			c0.24-0.89,0.65-2.86,1.23-5.91c0.23-1.23,0.54-2.52,0.91-3.88c3.41-12.56,12.88-16.74,28.39-12.52
			c15.52,4.21,21.51,12.81,17.99,25.79c-0.3,1.1-0.8,2.57-1.49,4.4c-1.04,2.75-1.7,4.6-1.95,5.54c-0.23,0.84-0.44,1.99-0.63,3.46
			c-0.27,2.06-0.47,3.33-0.6,3.8c-0.23,0.84-0.68,1.46-1.36,1.86c-0.68,0.41-1.42,0.5-2.2,0.29c-1.53-0.42-2.07-1.46-1.61-3.13
			c0.14-0.52,0.33-0.89,0.56-1.11C1469.13,1144.6,1469.34,1144.15,1469.37,1144.05z M1467.75,1135.18c1.78,0.43,3.09-0.03,3.96-1.38
			c0.49-0.71,1.07-2.3,1.74-4.77c1.17-4.31,0.63-7.9-1.63-10.77c-3-3.8-7.57-6.54-13.74-8.22c-4.96-1.35-9.21-1.58-12.75-0.72
			c-3.54,0.87-6.05,2.73-7.52,5.59c-0.85,1.68-1.54,3.49-2.07,5.42c-0.72,2.67-0.72,4.47,0.03,5.4c0.47,0.63,1.92,1.28,4.32,1.93
			l0.42,0.11L1467.75,1135.18z"/>
	</g>
	<g>
		<path class="st1" d="M939.6,1015.24c-4.48,0-6.6,1.37-6.35,4.11c0,2.49,1.87,3.74,5.6,3.74c5.73,0,10.84-1.99,15.32-5.98
			C948.94,1015.86,944.08,1015.24,939.6,1015.24z M947.82,964.79c6.97,0,12.76,1.5,17.38,4.48c4.61,2.99,7.66,6.85,9.16,11.58
			c1.5,4.74,1.99,9.84,1.5,15.32c-0.5,5.48-2.12,10.71-4.86,15.69c1.74,0.25,3.74,0.37,5.98,0.37c8.47,0.25,18.56-0.99,30.27-3.74
			c11.71-2.74,21.05-5.1,28.03-7.1c6.97-1.99,10.46-2.36,10.46-1.12c0,3.99-8.66,8.29-25.97,12.89
			c-17.32,4.61-31.45,6.91-42.41,6.91c-4.24,0-8.1-0.25-11.58-0.75c-7.47,8.97-16.94,13.45-28.4,13.45
			c-7.47,0-12.09-3.24-13.83-9.72c-1.49-6.22,0.62-11.08,6.35-14.57c2.74-1.49,5.98-2.24,9.72-2.24c4.23,0,11.21,1.25,20.92,3.74
			c2.99-4.98,4.67-10.15,5.04-15.51c0.37-5.35-0.93-9.96-3.92-13.83c-2.99-3.86-7.47-5.79-13.45-5.79
			c-9.47,0-18.19,7.04-26.16,21.11c-7.98,14.08-14.51,31.7-19.62,52.87c-5.11,21.17-9.78,44.15-14.01,68.94
			c-4.24,24.78-7.66,47.77-10.28,68.94c-2.62,21.17-5.23,38.86-7.85,53.06c-2.62,14.2-4.92,21.3-6.91,21.3
			c-8.72,0-13.33-20.12-13.83-60.35c-0.5-40.23,1.37-82.27,5.61-126.11c4.23-43.85,8.47-73.86,12.7-90.05
			c-17.19,9.47-35,17.13-53.43,22.98c-18.44,5.86-36.19,9.84-53.25,11.96c-17.07,2.12-34.25,3.18-51.57,3.18
			c-17.32,0-34.07-0.99-50.26-2.99c-16.2-1.99-32.01-4.23-47.46-6.73c-15.45-2.49-30.52-5.04-45.21-7.66
			c-14.7-2.62-28.53-4.79-41.48-6.54c-12.96-1.74-25.66-2.49-38.11-2.24c-12.46,0.25-23.54,1.62-33.26,4.11
			c-7.72,2-12.21,1-13.45-2.99c-0.99-3.74,1.37-6.97,7.1-9.72c1.24-0.75,2.74-1.24,4.48-1.49c8.22-2.24,17.19-2.99,26.9-2.24
			c9.72,0.75,21.36,2.12,34.94,4.11c13.58,2,27.4,4.61,41.48,7.85c14.07,3.24,29.64,6.17,46.71,8.78c17.06,2.62,34,5.11,50.82,7.47
			c16.82,2.37,34.62,3.61,53.43,3.74c18.81,0.13,37.12-0.81,54.93-2.8c17.81-1.99,36.25-5.98,55.3-11.96
			c19.06-5.98,37.18-13.83,54.37-23.54c3.49-3.49,6.73-4.23,9.71-2.24c1.5,1,1.87,2.24,1.12,3.74c-1,1.75-2.8,12.09-5.42,31.02
			c-2.62,18.93-5.23,41.48-7.85,67.63c-2.62,26.16-4.99,52.06-7.1,77.72c-2.12,25.66-3.05,47.46-2.8,65.39
			c0.25,17.94,1.87,26.9,4.86,26.9c0.5,0,1.12-5.23,1.87-15.69s1.87-24.04,3.36-40.73c1.49-16.69,3.42-35.07,5.79-55.12
			c2.36-20.06,5.66-40.17,9.9-60.35c4.23-20.18,9.09-38.55,14.57-55.12c5.48-16.56,12.45-30.08,20.93-40.54
			C928.26,970.02,937.6,964.79,947.82,964.79z"/>
		<path class="st1" d="M1079.96,788.6c30.14,0,47.83,14.33,53.06,42.97c5.23,28.65-0.32,59.92-16.63,93.79
			c-16.32,33.88-36.93,58.05-61.84,72.49c-4.24,2.49-8.59,4.86-13.08,7.1c2.74,12.21,5.6,23.42,8.59,33.63
			c1.5-6.22,3.18-12.08,5.04-17.56c1.87-5.48,4.42-10.96,7.66-16.44c3.23-5.48,7.29-9.9,12.14-13.27
			c4.86-3.36,10.15-5.04,15.88-5.04c6.73,0,11.77,2.8,15.13,8.41c3.36,5.6,5.04,12.65,5.04,21.11c0,3.24-0.62,6.73-1.87,10.46
			c14.44-7.22,32.07-11.96,52.87-14.2c20.8-2.24,42.53-2.37,65.21-0.37c22.67,2,46.46,4.8,71.37,8.41
			c24.91,3.61,49.57,7.16,73.99,10.65c24.41,3.49,47.64,6.17,69.69,8.03c22.05,1.87,42.84,1.75,62.4-0.37
			c19.55-2.11,35.69-6.91,48.39-14.39c3.74-1.74,6.54-2.05,8.41-0.93c1.87,1.12,2.62,3.05,2.24,5.79c-0.37,2.74-2.06,4.99-5.04,6.73
			c-12.21,6.98-28.28,11.27-48.2,12.89c-19.93,1.62-41.35,1.18-64.27-1.31c-22.92-2.49-47.15-5.85-72.68-10.09
			c-25.54-4.23-51.13-8.34-76.79-12.33c-25.66-3.98-50.14-6.91-73.43-8.78c-23.3-1.87-45.34-1.37-66.14,1.5
			c-20.8,2.87-37.93,8.54-51.38,17c-2.74,5.23-6.29,10.4-10.65,15.51c-4.36,5.1-8.03,9.03-11.02,11.77l-4.86,4.11v-0.75
			c-1.25,2.74-2.99,3.3-5.23,1.68c-2.24-1.62-2.49-3.92-0.75-6.91c5.23-9.22,11.96-17.06,20.18-23.54c4.73-8.97,7.1-15.94,7.1-20.93
			c0-13.2-3.49-19.8-10.46-19.8c-14.95,0-26.9,18.06-35.87,54.18c2.99,8.72,5.98,15.57,8.97,20.55c2.24,3.98,1.87,6.6-1.12,7.85
			c-3.49,1.74-6.98-0.37-10.46-6.35c-0.25-0.5-0.5-1-0.75-1.5c-5.23-10.96-10.34-25.35-15.32-43.16
			c-4.98-17.81-9.28-37.24-12.89-58.29c-3.61-21.05-5.48-42.22-5.6-63.52c-0.12-21.3,1.44-40.67,4.67-58.11
			c3.24-17.43,9.84-31.57,19.8-42.41C1051.44,794.01,1064.27,788.6,1079.96,788.6z M1079.59,798.31c-11.71,0-21.43,4.36-29.15,13.08
			c-7.72,8.72-13.14,19.99-16.25,33.82c-3.11,13.83-4.86,29.77-5.23,47.83c-0.37,18.06,0.5,36.06,2.62,54
			c2.11,17.94,5.04,35.75,8.78,53.44c4.48-2.49,8.84-4.98,13.08-7.47c22.42-12.7,41.1-34.87,56.05-66.51
			c14.95-32.14,20.55-60.91,16.81-86.32c-3.99-25.41-17.44-39.24-40.36-41.48C1083.95,798.44,1081.83,798.31,1079.59,798.31z"/>
	</g>
	<g>
		<path class="st1" d="M1000,1514.98c-69.54,0-137-13.62-200.51-40.48c-61.34-25.95-116.43-63.09-163.74-110.39
			c-47.31-47.31-84.45-102.4-110.39-163.74c-26.86-63.51-40.48-130.97-40.48-200.51s13.62-137,40.48-200.51
			c25.94-61.34,63.09-116.43,110.39-163.74c47.31-47.31,102.4-84.45,163.74-110.39C863,498.35,930.46,484.73,1000,484.73v6
			c-68.73,0-135.41,13.46-198.17,40.01C741.2,556.38,686.75,593.09,640,639.85s-83.47,101.21-109.11,161.83
			c-26.55,62.77-40.01,129.44-40.01,198.17c0,68.73,13.46,135.41,40.01,198.17c25.64,60.63,62.35,115.07,109.11,161.83
			s101.21,83.47,161.83,109.11c62.77,26.55,129.44,40.01,198.17,40.01s135.41-13.46,198.17-40.01
			c60.63-25.64,115.07-62.35,161.83-109.11s83.47-101.21,109.11-161.83c26.55-62.76,40.01-129.44,40.01-198.17h6
			c0,69.54-13.62,137-40.48,200.51c-25.94,61.34-63.09,116.43-110.39,163.74c-47.31,47.31-102.4,84.45-163.74,110.39
			C1137,1501.36,1069.54,1514.98,1000,1514.98z"/>
	</g>
</g>
</svg>
