<?xml version="1.0" encoding="utf-8"?>
<!-- Generator: Adobe Illustrator 25.2.1, SVG Export Plug-In . SVG Version: 6.00 Build 0)  -->
<svg version="1.1" id="Layer_1" xmlns="http://www.w3.org/2000/svg" xmlns:xlink="http://www.w3.org/1999/xlink" x="0px" y="0px"
	 viewBox="0 0 73 50" style="enable-background:new 0 0 73 50;" xml:space="preserve">
<style type="text/css">
	.st0{fill:#2E2E2E;}
	.st1{fill:#E2E21D;}
	.st2{fill:#EE2C29;}
	.st3{fill:#FFFFFF;stroke:#000000;stroke-miterlimit:10;}
	.st4{fill:none;}
	.st5{font-family:'ArialMT';}
	.st6{font-size:0.2654px;}
	.st7{fill:none;stroke:#000000;stroke-width:6;stroke-miterlimit:10;}
</style>
<g>
	<path class="st0" d="M0,32.4V17.6h5.9c1.3,0,2.4,0.4,3.1,1.3c0.7,0.8,1.1,1.8,1.1,3.1c0,0.1,0,0.1,0,0.2c0,0.6-0.1,1.2-0.4,1.7
		c-0.2,0.5-0.6,0.9-1,1.2c0.5,0.3,0.8,0.8,1.1,1.3s0.4,1.1,0.4,1.7c0,1.2-0.4,2.3-1.3,3.2C8.1,32,7,32.4,5.8,32.4H0z M3,23.5h1.8
		h0.9c0.4,0,0.7-0.1,1-0.4C6.8,22.8,7,22.4,7,22s-0.1-0.8-0.4-1.1c-0.2-0.3-0.6-0.4-1-0.4H3V23.5z M3,29.4h1.8h0.9
		c0.4,0,0.8-0.1,1.1-0.4s0.4-0.6,0.4-1.1c0-0.4-0.1-0.8-0.4-1c-0.3-0.3-0.6-0.4-1.1-0.4H3V29.4z"/>
	<path class="st0" d="M19.6,27.8c-0.3-0.9-0.5-1.8-0.5-2.8s0.2-1.9,0.5-2.8s0.8-1.7,1.4-2.4c0.6-0.7,1.4-1.3,2.4-1.7
		c1-0.4,2.1-0.7,3.3-0.7c1.2,0,2.3,0.2,3.3,0.7s1.8,1,2.4,1.7c0.6,0.7,1.1,1.5,1.4,2.4c0.3,0.9,0.5,1.8,0.5,2.8s-0.2,1.9-0.5,2.8
		s-0.8,1.7-1.4,2.4c-0.6,0.7-1.4,1.3-2.4,1.7c-1,0.4-2.1,0.7-3.3,0.7c-1.2,0-2.3-0.2-3.3-0.7c-1-0.4-1.8-1-2.4-1.7
		C20.4,29.5,19.9,28.7,19.6,27.8z M22.6,23.3c-0.2,0.5-0.3,1.1-0.3,1.7s0.1,1.1,0.3,1.7c0.2,0.5,0.5,1,0.8,1.5
		c0.4,0.4,0.8,0.8,1.4,1c0.6,0.3,1.2,0.4,1.9,0.4c0.7,0,1.4-0.1,1.9-0.4c0.6-0.3,1-0.6,1.4-1s0.6-0.9,0.8-1.5
		c0.2-0.5,0.3-1.1,0.3-1.7s-0.1-1.1-0.3-1.7c-0.2-0.5-0.5-1-0.8-1.5c-0.4-0.4-0.8-0.8-1.4-1s-1.2-0.4-1.9-0.4
		c-0.7,0-1.4,0.1-1.9,0.4c-0.6,0.3-1,0.6-1.4,1C23.1,22.3,22.8,22.7,22.6,23.3z"/>
	<path class="st0" d="M44,32.4V17.3h0.8l7.5,8.7v-8.4h3v15.1h-0.8L47,24.3v8h-3V32.4z"/>
	<path class="st0" d="M65.4,32.4V17.6h7.4v3h-4.4v2.9h3.9v3h-3.9v3H73v3L65.4,32.4L65.4,32.4z"/>
</g>
<rect x="331.9" y="123" class="st1" width="94.9" height="94.9"/>
<g>
	<g>
		<path class="st2" d="M380.5,192.9l-0.2,0c0,0-0.1,0-0.1,0c0,0,0,0,0,0.1l0,0l0,0.3c0,0.2,0.1,0.3,0.1,0.3c0,0,0,0,0.1,0
			c0,0,0,0,0.1,0c0,0,0.1,0,0.1,0c0,0,0,0,0,0.1c0,0,0,0.1,0,0.1c0,0-0.1,0-0.1,0c0,0-0.1,0-0.2,0c0,0-0.1,0-0.2,0c0,0-0.1,0-0.2,0
			c-0.1,0-0.1,0-0.2,0c0,0-0.1,0-0.1,0c0,0,0-0.1,0-0.1c0-0.1,0-0.1,0.1-0.1c0,0,0,0,0.1,0c0,0,0.1,0,0.1,0c0,0,0.1,0,0.1-0.1
			c0-0.1,0-0.2,0-0.5l0-0.6c0-0.3,0-0.4,0-0.5c0-0.1,0-0.1-0.1-0.1c0,0,0,0-0.1,0c0,0,0,0-0.1,0c-0.1,0-0.1,0-0.1-0.1
			c0-0.1,0-0.1,0.1-0.1c0,0,0.1,0,0.2,0c0.1,0,0.1,0,0.2,0c0.1,0,0.2,0,0.3,0c0.1,0,0.2,0,0.3,0c0.2,0,0.4,0,0.5,0.1
			c0.1,0.1,0.2,0.3,0.2,0.5c0,0.3-0.1,0.5-0.3,0.6C380.9,192.9,380.8,192.9,380.5,192.9z M380.5,191.8c-0.1,0-0.2,0-0.3,0.1
			c0,0-0.1,0.1-0.1,0.2l0,0.5c0,0.1,0,0.1,0,0.1c0,0,0,0,0.1,0c0.1,0,0.2,0,0.2,0c0.3,0,0.5-0.2,0.5-0.4c0-0.2-0.1-0.3-0.1-0.3
			C380.8,191.9,380.7,191.8,380.5,191.8z"/>
		<path class="st2" d="M383.5,192.7l0-0.2c0,0,0-0.1,0-0.1c0,0,0,0-0.1,0c0,0,0,0-0.1,0l-0.6,0.1c0,0,0,0-0.1,0c0,0,0,0.1,0,0.1
			l0,0.1l0.1,0.3c0,0.2,0.1,0.2,0.2,0.2c0,0,0,0,0.1,0c0,0,0,0,0.1,0c0,0,0.1,0,0.1,0c0,0,0,0,0,0.1c0,0,0,0.1,0,0.1
			c0,0-0.1,0-0.1,0.1c0,0-0.1,0-0.2,0c-0.1,0-0.1,0-0.2,0c0,0-0.1,0-0.2,0s-0.1,0-0.2,0c0,0-0.1,0-0.1,0c0,0-0.1-0.1-0.1-0.1
			c0-0.1,0-0.1,0.1-0.1c0,0,0,0,0.1,0c0,0,0.1,0,0.1,0c0,0,0.1,0,0.1-0.1c0-0.1,0-0.2-0.1-0.5l-0.1-0.6c0-0.3-0.1-0.4-0.1-0.5
			c0-0.1-0.1-0.1-0.1-0.1c0,0,0,0-0.1,0c0,0,0,0-0.1,0c-0.1,0-0.1,0-0.1-0.1c0-0.1,0-0.1,0.1-0.2c0,0,0.1,0,0.2,0c0.1,0,0.2,0,0.2,0
			c0,0,0.1,0,0.2,0c0.1,0,0.1,0,0.2,0c0,0,0.1,0,0.1,0c0,0,0.1,0,0.1,0.1c0,0,0,0.1,0,0.1c0,0,0,0-0.1,0c0,0,0,0-0.1,0
			c0,0,0,0-0.1,0c-0.1,0-0.1,0.1-0.1,0.3c0,0,0,0.1,0.1,0.3l0,0l0,0c0,0,0,0.1,0,0.1c0,0,0.1,0,0.2,0l0.4-0.1c0.1,0,0.1,0,0.2,0
			c0,0,0-0.1,0-0.1l0,0c0-0.2-0.1-0.3-0.1-0.3c0-0.2-0.1-0.2-0.2-0.2c0,0,0,0-0.1,0c0,0,0,0-0.1,0c0,0-0.1,0-0.1,0c0,0,0,0,0-0.1
			c0,0,0-0.1,0-0.1c0,0,0.1,0,0.1-0.1c0,0,0.1,0,0.2,0c0.1,0,0.1,0,0.2,0c0,0,0.1,0,0.2,0c0.1,0,0.1,0,0.2,0c0,0,0.1,0,0.1,0
			c0,0,0.1,0,0.1,0.1c0,0,0,0.1,0,0.1s0,0-0.1,0c0,0,0,0-0.1,0c0,0,0,0-0.1,0c-0.1,0-0.1,0.1-0.1,0.3c0,0,0,0.1,0.1,0.3l0.1,0.6
			l0.1,0.3c0,0.2,0.1,0.2,0.2,0.2c0,0,0,0,0.1,0c0,0,0,0,0.1,0c0,0,0.1,0,0.1,0c0,0,0,0,0,0.1c0,0,0,0.1,0,0.1c0,0-0.1,0-0.1,0.1
			c0,0-0.1,0-0.2,0c-0.1,0-0.1,0-0.2,0c0,0-0.1,0-0.2,0c-0.1,0-0.1,0-0.2,0c0,0-0.1,0-0.1,0s-0.1-0.1-0.1-0.1c0,0,0-0.1,0-0.1
			c0,0,0,0,0.1,0c0,0,0,0,0.1,0c0,0,0.1,0,0.1,0c0.1,0,0.1-0.1,0.1-0.3L383.5,192.7z"/>
		<path class="st2" d="M385.9,193.1c-0.2,0.1-0.5,0-0.7-0.1c-0.2-0.2-0.4-0.4-0.5-0.8c-0.1-0.3-0.1-0.6,0-0.9
			c0.1-0.2,0.2-0.4,0.5-0.5c0.2-0.1,0.5,0,0.7,0.1c0.2,0.2,0.4,0.4,0.5,0.8c0.1,0.3,0.1,0.6,0,0.9
			C386.3,192.8,386.1,193,385.9,193.1z M385.3,191c-0.2,0-0.3,0.2-0.3,0.4c0,0.2,0,0.4,0.1,0.7c0.1,0.3,0.2,0.5,0.3,0.6
			c0.1,0.1,0.3,0.2,0.4,0.1c0.2,0,0.3-0.2,0.3-0.3c0-0.2,0-0.4-0.1-0.7c-0.1-0.3-0.2-0.5-0.3-0.6C385.6,191,385.5,191,385.3,191z"/>
		<path class="st2" d="M387.7,190.5l0.4,0.9c0.1,0.2,0.2,0.4,0.2,0.4c0,0.1,0.1,0.1,0.1,0.1c0,0,0,0,0.1,0c0,0,0,0,0.1,0
			c0.1,0,0.1,0,0.2,0.1c0,0,0,0.1,0,0.1c0,0,0,0.1-0.1,0.1c0,0-0.1,0-0.2,0c-0.1,0-0.1,0-0.2,0.1c0,0-0.1,0-0.2,0.1
			c-0.1,0-0.1,0.1-0.2,0.1c0,0-0.1,0-0.1,0s-0.1,0-0.1-0.1c0-0.1,0-0.1,0.1-0.2c0,0,0,0,0.1,0c0,0,0.1,0,0.1,0c0,0,0.1-0.1,0-0.1
			c0-0.1-0.1-0.2-0.2-0.5l-0.3-0.7c-0.1-0.2-0.1-0.3-0.2-0.3c0,0-0.1,0-0.2,0c-0.1,0-0.1,0.1-0.2,0.1c0,0,0,0.1,0,0.1
			c0,0,0,0.1,0.1,0.2c0,0.1,0.1,0.1,0.1,0.2c0,0.1,0,0.2-0.1,0.2c-0.1,0-0.1,0-0.2-0.1c0,0,0,0,0-0.1c0-0.1-0.1-0.2-0.1-0.2
			c0,0,0-0.1-0.1-0.2c0,0,0-0.1-0.1-0.1c0-0.1,0-0.1,0.1-0.2c0,0,0.1,0,0.2-0.1c0.1,0,0.2-0.1,0.4-0.1l0.1,0l0.2-0.1
			c0.1,0,0.2-0.1,0.2-0.1c0.1,0,0.2-0.1,0.2-0.1c0.1,0,0.1,0,0.2,0.1c0,0,0,0,0,0.1c0,0.1,0.1,0.2,0.1,0.2c0,0,0,0.1,0.1,0.2
			c0,0,0,0.1,0,0.1c0,0.1,0,0.2-0.1,0.2c-0.1,0-0.1,0-0.2-0.1c0,0,0,0,0-0.1c0,0,0-0.1,0-0.1l-0.1-0.2c0-0.1-0.1-0.1-0.1-0.1
			s-0.1,0-0.2,0c-0.1,0-0.1,0.1-0.2,0.1C387.6,190.3,387.7,190.4,387.7,190.5z"/>
		<path class="st2" d="M390.5,191.2c-0.2,0.1-0.5,0.1-0.7,0c-0.2-0.1-0.4-0.3-0.6-0.7c-0.2-0.3-0.2-0.6-0.2-0.9
			c0-0.3,0.2-0.5,0.4-0.6c0.2-0.1,0.4-0.1,0.7,0c0.2,0.1,0.4,0.3,0.6,0.7c0.2,0.3,0.2,0.6,0.2,0.9
			C390.8,190.9,390.7,191.1,390.5,191.2z M389.5,189.3c-0.2,0.1-0.2,0.2-0.2,0.4c0,0.2,0.1,0.4,0.2,0.7c0.1,0.3,0.3,0.4,0.5,0.5
			c0.2,0.1,0.3,0.1,0.5,0c0.1-0.1,0.2-0.2,0.2-0.4c0-0.2-0.1-0.4-0.2-0.7c-0.1-0.3-0.3-0.4-0.5-0.5
			C389.8,189.2,389.6,189.2,389.5,189.3z"/>
		<path class="st2" d="M392.3,187.9c0.1,0.2,0.1,0.4,0,0.6c0.3-0.1,0.5,0,0.7,0.2c0.1,0.2,0.1,0.3,0.1,0.5c0,0.2-0.1,0.3-0.3,0.5
			c-0.1,0-0.1,0.1-0.3,0.2c-0.1,0-0.2,0.1-0.2,0.1c0,0-0.1,0.1-0.1,0.1c-0.1,0.1-0.1,0.1-0.1,0.1c0,0-0.1,0-0.1,0c0,0-0.1,0-0.1-0.1
			c0-0.1,0-0.1,0-0.2c0,0,0,0,0.1,0c0,0,0.1,0,0.1,0c0,0,0-0.1,0-0.1c0-0.1-0.1-0.2-0.3-0.4l-0.4-0.5c-0.1-0.2-0.2-0.3-0.3-0.4
			c0,0-0.1-0.1-0.1,0c0,0,0,0,0,0c0,0,0,0-0.1,0c-0.1,0-0.1,0-0.2,0c-0.1-0.1,0-0.1,0-0.2c0,0,0.1-0.1,0.2-0.1
			c0.1,0,0.1-0.1,0.2-0.1c0.1-0.1,0.2-0.1,0.2-0.2c0.1-0.1,0.1-0.1,0.2-0.2c0.2-0.1,0.3-0.2,0.5-0.1
			C392.1,187.7,392.2,187.8,392.3,187.9z M391.4,188.5l0.2,0.3c0,0,0,0,0,0.1c0,0,0,0,0.1,0l0.1-0.1c0.2-0.1,0.3-0.2,0.3-0.3
			c0-0.1,0-0.2-0.1-0.3c-0.1-0.2-0.3-0.2-0.6,0c-0.1,0.1-0.2,0.1-0.2,0.2C391.3,188.3,391.3,188.4,391.4,188.5z M392,188.9
			c-0.1,0.1-0.1,0.1-0.1,0.1c0,0-0.1,0.1,0,0.1l0.3,0.4c0.1,0.1,0.1,0.1,0.2,0.2s0.1,0,0.3-0.1c0.3-0.2,0.4-0.4,0.2-0.7
			c-0.1-0.2-0.2-0.2-0.4-0.2C392.3,188.7,392.2,188.8,392,188.9z"/>
		<path class="st2" d="M394.3,186.4c0.2,0.2,0.2,0.4,0,0.7c0.1,0,0.2-0.1,0.3,0c0.1,0,0.1,0.1,0.2,0.2l0.1,0.1l0.1,0.1
			c0.1,0.1,0.2,0.1,0.2,0.1c0,0,0,0,0-0.1c0,0,0,0,0,0c0.1-0.1,0.1-0.1,0.2,0c0.1,0.1,0,0.1,0,0.2l0,0l-0.1,0.1l-0.1,0.1
			c-0.1,0.1-0.1,0.1-0.2,0s-0.2-0.1-0.3-0.3l-0.1-0.1c-0.1-0.1-0.2-0.1-0.2-0.1c-0.1,0-0.2,0.1-0.3,0.2l0,0l-0.1,0.1c0,0,0,0,0,0.1
			c0,0,0,0.1,0.1,0.1l0.1,0.1c0.2,0.2,0.3,0.3,0.3,0.4c0.1,0,0.1,0,0.1,0c0,0,0,0,0-0.1c0,0,0,0,0,0c0.1-0.1,0.1-0.1,0.2,0
			c0,0,0,0.1,0,0.1s0,0.1-0.1,0.1c0,0-0.1,0.1-0.1,0.1c-0.1,0-0.1,0.1-0.2,0.1c0,0-0.1,0.1-0.1,0.1c-0.1,0.1-0.1,0.1-0.1,0.1
			c0,0-0.1,0-0.1,0c0,0-0.1,0-0.1,0c0-0.1,0-0.1,0-0.2c0,0,0,0,0.1,0c0,0,0.1,0,0.1,0c0,0,0-0.1,0-0.1c0-0.1-0.1-0.2-0.3-0.4
			l-0.4-0.5c-0.2-0.2-0.3-0.3-0.3-0.4c-0.1,0-0.1,0-0.1,0c0,0,0,0,0,0c0,0,0,0,0,0.1c-0.1,0.1-0.1,0.1-0.2,0c-0.1-0.1-0.1-0.1,0-0.2
			c0,0,0.1-0.1,0.2-0.1c0.1,0,0.1-0.1,0.2-0.1c0.1,0,0.1-0.1,0.2-0.2c0.1-0.1,0.2-0.2,0.2-0.2c0.1-0.1,0.3-0.2,0.4-0.2
			C394,186.2,394.1,186.2,394.3,186.4z M393.7,187.3c0,0,0.1,0,0.1,0l0.1,0c0,0,0,0,0,0c0,0,0,0,0,0c0.1-0.1,0.1-0.1,0.2-0.2
			c0.1-0.1,0.1-0.1,0.1-0.2c0-0.1,0-0.2-0.1-0.2c-0.2-0.2-0.4-0.2-0.6,0c-0.1,0.1-0.2,0.2-0.2,0.2c0,0.1,0,0.1,0,0.1L393.7,187.3z"
			/>
		<path class="st2" d="M395.9,186.1l-0.8-1.3c0-0.1-0.1-0.1-0.1-0.1c0,0,0-0.1,0-0.1c0-0.1,0.1-0.1,0.1-0.1c0,0,0.1,0,0.3,0.1
			l1.5,0.7c0.1,0,0.2,0.1,0.2,0.1s0.1,0,0.1,0c0,0,0,0,0-0.1c0,0,0,0,0,0c0,0,0,0,0,0c0.1-0.1,0.1-0.1,0.2,0c0.1,0.1,0.1,0.1,0,0.2
			c0,0-0.1,0-0.1,0.1c0,0-0.1,0.1-0.1,0.1c0,0-0.1,0.1-0.1,0.2c0,0.1-0.1,0.1-0.1,0.1c0,0-0.1,0-0.1,0s-0.1,0-0.1,0
			c-0.1-0.1-0.1-0.1,0-0.2c0,0,0,0,0,0s0,0,0,0c0,0,0,0,0,0c0,0,0-0.1,0-0.1c0,0-0.1-0.1-0.1-0.1l-0.2-0.1c0,0-0.1,0-0.1,0
			c0,0,0,0-0.1,0l-0.3,0.3c0,0,0,0.1,0,0.2l0.1,0.2c0,0.1,0.1,0.1,0.1,0.1c0,0,0.1,0,0.1,0c0,0,0,0,0,0c0,0,0,0,0,0c0,0,0,0,0,0
			c0.1-0.1,0.1-0.1,0.2,0c0.1,0.1,0.1,0.1,0,0.2c0,0-0.1,0.1-0.1,0.1c-0.1,0-0.1,0.1-0.1,0.1c0,0-0.1,0.1-0.1,0.2
			c0,0.1-0.1,0.1-0.1,0.1c-0.1,0.1-0.1,0.1-0.2,0c-0.1-0.1-0.1-0.1,0-0.2c0,0,0,0,0,0c0,0,0,0,0,0c0,0,0-0.1,0-0.2
			C396.1,186.4,396,186.3,395.9,186.1z M396.2,185.2l-0.8-0.4l0.5,0.7c0,0,0,0,0,0c0,0,0,0,0.1,0L396.2,185.2
			C396.2,185.3,396.2,185.3,396.2,185.2C396.2,185.2,396.2,185.2,396.2,185.2z"/>
		<path class="st2" d="M396.6,182.9l1.9,0.5l-0.9-0.7c-0.2-0.1-0.3-0.2-0.3-0.2c-0.1-0.1-0.2-0.1-0.3-0.1c0,0,0,0,0,0.1s0,0,0,0.1
			c0,0,0,0-0.1,0.1c0,0-0.1,0-0.1,0c0,0,0-0.1-0.1-0.1c0,0,0-0.1,0-0.1c0,0,0.1-0.1,0.1-0.1c0,0,0.1-0.1,0.1-0.1
			c0-0.1,0.1-0.1,0.1-0.2c0-0.1,0.1-0.1,0.1-0.1c0,0,0,0,0.1,0c0,0,0.1,0,0.1,0c0.1,0,0.1,0.1,0,0.2c0,0,0,0,0,0c0,0,0,0,0,0
			c0,0,0,0.1,0.1,0.2l0.1,0.1l0.2,0.1l1,0.7c0.1,0.1,0.2,0.2,0.1,0.3c-0.1,0.1-0.2,0.1-0.3,0.1l-1.8-0.5l1,0.7
			c0.2,0.2,0.4,0.2,0.4,0.3c0.1,0,0.1,0,0.1,0c0,0,0,0,0-0.1c0,0,0,0,0-0.1c0-0.1,0.1-0.1,0.2,0c0,0,0,0.1,0.1,0.1c0,0,0,0.1,0,0.1
			c0,0,0,0-0.1,0.1c0,0-0.1,0.1-0.1,0.1c0,0.1-0.1,0.1-0.1,0.2c0,0.1-0.1,0.1-0.1,0.2c0,0-0.1,0.1-0.1,0.1c0,0-0.1,0-0.1,0
			c-0.1,0-0.1-0.1,0-0.2c0,0,0,0,0,0c0,0,0,0,0-0.1c0,0,0-0.1,0-0.1c0,0-0.2-0.1-0.4-0.3l-0.5-0.4c-0.2-0.2-0.4-0.2-0.4-0.3
			c-0.1,0-0.1,0-0.1,0c0,0,0,0,0,0.1c0,0,0,0,0,0.1c0,0.1-0.1,0.1-0.2,0c0,0,0-0.1-0.1-0.1c0,0,0-0.1,0-0.1c0,0,0.1-0.1,0.1-0.1
			c0,0,0.1-0.1,0.1-0.1c0,0,0-0.1,0.1-0.1c0,0,0,0,0,0C396.5,182.9,396.6,182.9,396.6,182.9z"/>
		<path class="st2" d="M399.5,182.2c0,0,0-0.1,0-0.1c-0.1,0-0.2-0.1-0.4-0.3l-0.6-0.3c-0.2-0.1-0.4-0.2-0.4-0.2c-0.1,0-0.1,0-0.1,0
			c0,0,0,0,0,0.1c0,0,0,0,0,0.1c0,0.1-0.1,0.1-0.2,0.1c-0.1,0-0.1-0.1,0-0.2c0,0,0.1-0.1,0.1-0.2c0,0,0.1-0.1,0.1-0.1
			c0,0,0.1-0.1,0.1-0.3c0-0.1,0.1-0.1,0.1-0.2c0.3-0.5,0.8-0.6,1.4-0.3c0.7,0.4,0.9,0.8,0.6,1.4c0,0-0.1,0.1-0.1,0.2
			c-0.1,0.1-0.1,0.2-0.2,0.2c0,0,0,0.1-0.1,0.2c0,0.1-0.1,0.1-0.1,0.2c0,0,0,0.1-0.1,0.1c0,0-0.1,0-0.1,0c-0.1,0-0.1-0.1,0-0.2
			C399.4,182.2,399.4,182.2,399.5,182.2C399.5,182.2,399.5,182.2,399.5,182.2z M399.5,181.7c0.1,0,0.1,0,0.2,0c0,0,0.1-0.1,0.1-0.2
			c0.1-0.2,0.1-0.4,0-0.5c-0.1-0.2-0.3-0.4-0.5-0.5c-0.2-0.1-0.4-0.2-0.6-0.2c-0.2,0-0.3,0.1-0.4,0.2c-0.1,0.1-0.1,0.1-0.2,0.2
			c-0.1,0.1-0.1,0.2-0.1,0.2c0,0,0.1,0.1,0.2,0.1l0,0L399.5,181.7z"/>
		<path class="st2" d="M399.5,178.8l0.2,0.1l0.1,0c0.1,0,0.1,0,0.1,0l0.1-0.1c0-0.1,0-0.2-0.1-0.2c0,0-0.1,0-0.1,0
			c-0.1,0-0.1,0-0.1,0c-0.1,0-0.1-0.1-0.1-0.2c0-0.1,0.1-0.1,0.2,0l0.1,0l0.2,0.1c0.1,0,0.1,0.1,0.2,0.1c0.1,0,0.2,0.1,0.3,0.1
			c0,0,0.1,0,0.1,0c0.1,0,0.1,0.1,0.1,0.2c0,0.1-0.1,0.1-0.2,0.1c0,0,0,0-0.1,0c0,0-0.1,0-0.1,0c-0.1,0-0.2,0-0.2,0.1l-0.1,0.1
			c0,0,0,0.1,0,0.1c0,0,0,0,0.1,0.1l0.2,0.1c0,0,0.1,0,0.2,0.1l0.2,0.1c0.1,0,0.1,0,0.2,0c0,0,0.1-0.1,0.1-0.2l0.1-0.2
			c0.1-0.2,0.1-0.3,0.1-0.3c0-0.1-0.1-0.1-0.2-0.2c0,0-0.1,0-0.1,0c-0.1,0-0.1,0-0.1,0c-0.1,0-0.1-0.1-0.1-0.2s0.1-0.1,0.2-0.1
			c0,0,0,0,0.1,0c0.1,0,0.1,0.1,0.2,0.1c0,0,0.1,0,0.1,0.1c0.1,0,0.1,0,0.1,0.1c0.1,0,0.1,0.1,0.1,0.1c0,0,0,0.1,0,0.2
			c0,0,0,0.1-0.1,0.1c-0.1,0.1-0.1,0.2-0.2,0.4c0,0,0,0.1-0.1,0.3c0,0.1-0.1,0.2-0.1,0.2c0,0.1,0,0.2-0.1,0.2c0,0.1-0.1,0.1-0.2,0.1
			c-0.1,0-0.1-0.1-0.1-0.2c0,0,0,0,0-0.1c0,0,0-0.1,0-0.1c0,0,0-0.1-0.1-0.1c-0.1,0-0.2-0.1-0.4-0.2l-0.6-0.2
			c-0.2-0.1-0.4-0.2-0.5-0.2c-0.1,0-0.1,0-0.1,0c0,0,0,0,0,0.1c0,0,0,0,0,0.1c0,0.1-0.1,0.1-0.2,0.1c-0.1,0-0.1-0.1-0.1-0.2
			c0,0,0-0.1,0.1-0.2c0,0,0.1-0.1,0.1-0.2c0.1-0.2,0.1-0.4,0.2-0.6c0-0.1,0-0.1,0.1-0.2c0-0.1,0.1-0.2,0.1-0.1c0,0,0.1,0,0.1,0
			c0,0,0.1,0,0.1,0.1c0.1,0.1,0.2,0.1,0.3,0.1l0.2,0.1c0.1,0,0.1,0.1,0.1,0.2c0,0.1-0.1,0.1-0.2,0.1c0,0-0.1,0-0.1-0.1
			c-0.1,0-0.1,0-0.1-0.1c-0.1,0-0.2-0.1-0.3,0c-0.1,0-0.1,0.1-0.1,0.2l-0.1,0.3c0,0.1,0,0.2,0,0.2
			C399.3,178.7,399.4,178.7,399.5,178.8z"/>
		<path class="st2" d="M401.6,177.3c0,0,0-0.1-0.1-0.1s-0.2-0.1-0.5-0.1l-0.6-0.2c-0.3-0.1-0.4-0.1-0.5-0.1s-0.1,0-0.1,0.1
			c0,0,0,0,0,0.1c0,0,0,0,0,0.1c0,0.1-0.1,0.1-0.1,0.1c-0.1,0-0.1-0.1-0.1-0.2c0,0,0-0.1,0.1-0.2c0-0.1,0-0.1,0.1-0.2
			c0,0,0-0.1,0.1-0.3c0-0.1,0-0.1,0-0.2c0.2-0.6,0.6-0.8,1.3-0.6c0.7,0.2,1,0.6,0.9,1.2c0,0.1,0,0.1-0.1,0.2c0,0.1-0.1,0.2-0.1,0.3
			c0,0,0,0.1,0,0.2c0,0.1,0,0.2,0,0.2c0,0,0,0.1-0.1,0.1c0,0-0.1,0-0.1,0c-0.1,0-0.1-0.1-0.1-0.1
			C401.6,177.4,401.6,177.3,401.6,177.3C401.6,177.3,401.6,177.3,401.6,177.3z M401.6,176.8c0.1,0,0.1,0,0.2-0.1
			c0,0,0.1-0.1,0.1-0.2c0.1-0.2,0-0.4-0.1-0.5c-0.1-0.2-0.4-0.3-0.7-0.4c-0.2-0.1-0.4-0.1-0.6,0c-0.2,0-0.3,0.1-0.4,0.3
			c0,0.1-0.1,0.2-0.1,0.3c0,0.1,0,0.2,0,0.3c0,0,0.1,0.1,0.2,0.1l0,0L401.6,176.8z"/>
	</g>
	<g>
		<path class="st2" d="M376.5,171.1c-0.2,0-0.3,0.1-0.3,0.2c0,0.1,0.1,0.2,0.3,0.2c0.3,0,0.5-0.1,0.7-0.3
			C376.9,171.2,376.7,171.1,376.5,171.1z M376.9,168.8c0.3,0,0.6,0.1,0.8,0.2c0.2,0.1,0.4,0.3,0.4,0.5c0.1,0.2,0.1,0.5,0.1,0.7
			c0,0.3-0.1,0.5-0.2,0.7c0.1,0,0.2,0,0.3,0c0.4,0,0.9,0,1.4-0.2c0.6-0.1,1-0.2,1.3-0.3c0.3-0.1,0.5-0.1,0.5-0.1
			c0,0.2-0.4,0.4-1.2,0.6c-0.8,0.2-1.5,0.3-2,0.3c-0.2,0-0.4,0-0.5,0c-0.4,0.4-0.8,0.6-1.3,0.6c-0.4,0-0.6-0.2-0.7-0.5
			c-0.1-0.3,0-0.5,0.3-0.7c0.1-0.1,0.3-0.1,0.5-0.1c0.2,0,0.5,0.1,1,0.2c0.1-0.2,0.2-0.5,0.2-0.7c0-0.3,0-0.5-0.2-0.7
			c-0.1-0.2-0.4-0.3-0.6-0.3c-0.4,0-0.9,0.3-1.2,1c-0.4,0.7-0.7,1.5-0.9,2.5s-0.5,2.1-0.7,3.3c-0.2,1.2-0.4,2.3-0.5,3.3
			c-0.1,1-0.2,1.8-0.4,2.5c-0.1,0.7-0.2,1-0.3,1c-0.4,0-0.6-1-0.7-2.9c0-1.9,0.1-3.9,0.3-6c0.2-2.1,0.4-3.5,0.6-4.3
			c-0.8,0.4-1.7,0.8-2.5,1.1c-0.9,0.3-1.7,0.5-2.5,0.6c-0.8,0.1-1.6,0.2-2.4,0.2c-0.8,0-1.6,0-2.4-0.1c-0.8-0.1-1.5-0.2-2.3-0.3
			c-0.7-0.1-1.4-0.2-2.1-0.4c-0.7-0.1-1.4-0.2-2-0.3c-0.6-0.1-1.2-0.1-1.8-0.1c-0.6,0-1.1,0.1-1.6,0.2c-0.4,0.1-0.6,0-0.6-0.1
			c0-0.2,0.1-0.3,0.3-0.5c0.1,0,0.1-0.1,0.2-0.1c0.4-0.1,0.8-0.1,1.3-0.1c0.5,0,1,0.1,1.7,0.2c0.6,0.1,1.3,0.2,2,0.4
			c0.7,0.2,1.4,0.3,2.2,0.4c0.8,0.1,1.6,0.2,2.4,0.4c0.8,0.1,1.6,0.2,2.5,0.2c0.9,0,1.8,0,2.6-0.1c0.8-0.1,1.7-0.3,2.6-0.6
			c0.9-0.3,1.8-0.7,2.6-1.1c0.2-0.2,0.3-0.2,0.5-0.1c0.1,0,0.1,0.1,0.1,0.2c0,0.1-0.1,0.6-0.3,1.5s-0.2,2-0.4,3.2
			c-0.1,1.2-0.2,2.5-0.3,3.7c-0.1,1.2-0.1,2.3-0.1,3.1c0,0.9,0.1,1.3,0.2,1.3c0,0,0.1-0.2,0.1-0.7c0-0.5,0.1-1.1,0.2-1.9
			c0.1-0.8,0.2-1.7,0.3-2.6c0.1-1,0.3-1.9,0.5-2.9c0.2-1,0.4-1.8,0.7-2.6c0.3-0.8,0.6-1.4,1-1.9C376,169,376.4,168.8,376.9,168.8z"
			/>
		<path class="st2" d="M383.2,160.4c1.4,0,2.3,0.7,2.5,2c0.2,1.4,0,2.8-0.8,4.5c-0.8,1.6-1.8,2.8-2.9,3.4c-0.2,0.1-0.4,0.2-0.6,0.3
			c0.1,0.6,0.3,1.1,0.4,1.6c0.1-0.3,0.2-0.6,0.2-0.8c0.1-0.3,0.2-0.5,0.4-0.8c0.2-0.3,0.3-0.5,0.6-0.6c0.2-0.2,0.5-0.2,0.8-0.2
			c0.3,0,0.6,0.1,0.7,0.4c0.2,0.3,0.2,0.6,0.2,1c0,0.2,0,0.3-0.1,0.5c0.7-0.3,1.5-0.6,2.5-0.7c1-0.1,2-0.1,3.1,0
			c1.1,0.1,2.2,0.2,3.4,0.4s2.4,0.3,3.5,0.5c1.2,0.2,2.3,0.3,3.3,0.4c1,0.1,2,0.1,3,0c0.9-0.1,1.7-0.3,2.3-0.7
			c0.2-0.1,0.3-0.1,0.4,0c0.1,0.1,0.1,0.1,0.1,0.3c0,0.1-0.1,0.2-0.2,0.3c-0.6,0.3-1.3,0.5-2.3,0.6c-0.9,0.1-2,0.1-3.1-0.1
			s-2.2-0.3-3.4-0.5c-1.2-0.2-2.4-0.4-3.6-0.6c-1.2-0.2-2.4-0.3-3.5-0.4c-1.1-0.1-2.2-0.1-3.1,0.1c-1,0.1-1.8,0.4-2.4,0.8
			c-0.1,0.2-0.3,0.5-0.5,0.7c-0.2,0.2-0.4,0.4-0.5,0.6l-0.2,0.2v0c-0.1,0.1-0.1,0.2-0.2,0.1c-0.1-0.1-0.1-0.2,0-0.3
			c0.2-0.4,0.6-0.8,1-1.1c0.2-0.4,0.3-0.8,0.3-1c0-0.6-0.2-0.9-0.5-0.9c-0.7,0-1.3,0.9-1.7,2.6c0.1,0.4,0.3,0.7,0.4,1
			c0.1,0.2,0.1,0.3-0.1,0.4c-0.2,0.1-0.3,0-0.5-0.3c0,0,0,0,0-0.1c-0.2-0.5-0.5-1.2-0.7-2c-0.2-0.8-0.4-1.8-0.6-2.8
			c-0.2-1-0.3-2-0.3-3c0-1,0.1-1.9,0.2-2.8c0.2-0.8,0.5-1.5,0.9-2C381.8,160.6,382.4,160.4,383.2,160.4z M383.1,160.9
			c-0.6,0-1,0.2-1.4,0.6c-0.4,0.4-0.6,0.9-0.8,1.6c-0.1,0.7-0.2,1.4-0.2,2.3c0,0.9,0,1.7,0.1,2.6c0.1,0.9,0.2,1.7,0.4,2.5
			c0.2-0.1,0.4-0.2,0.6-0.4c1.1-0.6,2-1.7,2.7-3.2c0.7-1.5,1-2.9,0.8-4.1c-0.2-1.2-0.8-1.9-1.9-2
			C383.4,160.9,383.3,160.9,383.1,160.9z"/>
	</g>
	<g>
		<path class="st2" d="M379.4,194.9c-3.3,0-6.5-0.6-9.5-1.9c-2.9-1.2-5.5-3-7.8-5.2c-2.2-2.2-4-4.9-5.2-7.8c-1.3-3-1.9-6.2-1.9-9.5
			c0-3.3,0.6-6.5,1.9-9.5c1.2-2.9,3-5.5,5.2-7.8c2.2-2.2,4.9-4,7.8-5.2c3-1.3,6.2-1.9,9.5-1.9v0.3c-3.3,0-6.4,0.6-9.4,1.9
			c-2.9,1.2-5.5,3-7.7,5.2c-2.2,2.2-4,4.8-5.2,7.7c-1.3,3-1.9,6.1-1.9,9.4c0,3.3,0.6,6.4,1.9,9.4c1.2,2.9,3,5.5,5.2,7.7
			c2.2,2.2,4.8,4,7.7,5.2c3,1.3,6.1,1.9,9.4,1.9s6.4-0.6,9.4-1.9c2.9-1.2,5.5-3,7.7-5.2c2.2-2.2,4-4.8,5.2-7.7
			c1.3-3,1.9-6.1,1.9-9.4h0.3c0,3.3-0.6,6.5-1.9,9.5c-1.2,2.9-3,5.5-5.2,7.8c-2.2,2.2-4.9,4-7.8,5.2
			C385.9,194.2,382.7,194.9,379.4,194.9z"/>
	</g>
</g>
<g id="Layer_2_1_">
	<rect x="15.2" y="4.6" class="st3" width="44.2" height="44.2"/>
</g>
<g id="Layer_1_1_">
	<path id="SVGID_x5F_1_x5F_" class="st4" d="M48.7,26.7c0-6.3-5.1-11.3-11.3-11.3S26,20.5,26,26.7s5.1,11.3,11.3,11.3
		S48.7,33,48.7,26.7z"/>
	<text transform="matrix(1 0 0 1 15.2113 4.6202)" class="st5 st6"> </text>
	<g>
		<path d="M36.2,26c0.2,0,0.3,0,0.4,0.1c0.1,0.1,0.2,0.2,0.2,0.3c0,0.1,0,0.2,0,0.3c0,0.1,0,0.2-0.1,0.3c0,0,0.1,0,0.1,0
			c0.2,0,0.4,0,0.7-0.1c0.3-0.1,0.5-0.1,0.6-0.2c0.2,0,0.2-0.1,0.2,0c0,0.1-0.2,0.2-0.6,0.3c-0.4,0.1-0.7,0.2-0.9,0.2
			c-0.1,0-0.2,0-0.3,0c-0.2,0.2-0.4,0.3-0.6,0.3c-0.2,0-0.3-0.1-0.3-0.2c0-0.1,0-0.2,0.1-0.3c0.1,0,0.1,0,0.2,0c0.1,0,0.2,0,0.5,0.1
			c0.1-0.1,0.1-0.2,0.1-0.3c0-0.1,0-0.2-0.1-0.3c-0.1-0.1-0.2-0.1-0.3-0.1c-0.2,0-0.4,0.2-0.6,0.5c-0.2,0.3-0.3,0.7-0.4,1.2
			c-0.1,0.5-0.2,1-0.3,1.5c-0.1,0.5-0.2,1.1-0.2,1.5s-0.1,0.9-0.2,1.2c-0.1,0.3-0.1,0.5-0.2,0.5c-0.2,0-0.3-0.4-0.3-1.3
			c0-0.9,0-1.8,0.1-2.8c0.1-1,0.2-1.6,0.3-2c-0.4,0.2-0.8,0.4-1.2,0.5c-0.4,0.1-0.8,0.2-1.2,0.3c-0.4,0-0.8,0.1-1.1,0.1
			s-0.8,0-1.1-0.1c-0.4,0-0.7-0.1-1-0.1c-0.3-0.1-0.7-0.1-1-0.2c-0.3-0.1-0.6-0.1-0.9-0.1c-0.3,0-0.6-0.1-0.8,0
			c-0.3,0-0.5,0-0.7,0.1c-0.2,0-0.3,0-0.3-0.1c0-0.1,0-0.2,0.2-0.2c0,0,0.1,0,0.1,0c0.2,0,0.4-0.1,0.6,0c0.2,0,0.5,0,0.8,0.1
			c0.3,0,0.6,0.1,0.9,0.2c0.3,0.1,0.7,0.1,1,0.2c0.4,0.1,0.8,0.1,1.1,0.2c0.4,0.1,0.8,0.1,1.2,0.1c0.4,0,0.8,0,1.2-0.1
			s0.8-0.1,1.2-0.3c0.4-0.1,0.8-0.3,1.2-0.5c0.1-0.1,0.1-0.1,0.2,0c0,0,0,0,0,0.1c0,0-0.1,0.3-0.1,0.7c-0.1,0.4-0.1,0.9-0.2,1.5
			c-0.1,0.6-0.1,1.2-0.2,1.7c0,0.6-0.1,1-0.1,1.4c0,0.4,0,0.6,0.1,0.6c0,0,0-0.1,0-0.3c0-0.2,0-0.5,0.1-0.9c0-0.4,0.1-0.8,0.1-1.2
			c0.1-0.4,0.1-0.9,0.2-1.3c0.1-0.4,0.2-0.9,0.3-1.2c0.1-0.4,0.3-0.7,0.5-0.9C35.7,26.1,35.9,26,36.2,26z M36,27.1
			c-0.1,0-0.1,0-0.1,0.1c0,0.1,0,0.1,0.1,0.1c0.1,0,0.2,0,0.3-0.1C36.2,27.1,36.1,27.1,36,27.1z"/>
		<path d="M39.1,22.1c0.7,0,1.1,0.3,1.2,1c0.1,0.6,0,1.3-0.4,2.1c-0.4,0.7-0.8,1.3-1.4,1.6c-0.1,0.1-0.2,0.1-0.3,0.2
			c0.1,0.3,0.1,0.5,0.2,0.7c0-0.1,0.1-0.3,0.1-0.4c0-0.1,0.1-0.2,0.2-0.4c0.1-0.1,0.2-0.2,0.3-0.3c0.1-0.1,0.2-0.1,0.4-0.1
			c0.1,0,0.3,0.1,0.3,0.2c0.1,0.1,0.1,0.3,0.1,0.5c0,0.1,0,0.1,0,0.2c0.3-0.2,0.7-0.3,1.2-0.3s0.9-0.1,1.4,0c0.5,0,1,0.1,1.6,0.2
			c0.6,0.1,1.1,0.2,1.6,0.2c0.5,0.1,1.1,0.1,1.5,0.2c0.5,0,0.9,0,1.4,0c0.4,0,0.8-0.2,1.1-0.3c0.1,0,0.1,0,0.2,0s0.1,0.1,0,0.1
			c0,0.1,0,0.1-0.1,0.1c-0.3,0.2-0.6,0.2-1.1,0.3c-0.4,0-0.9,0-1.4,0c-0.5-0.1-1-0.1-1.6-0.2c-0.6-0.1-1.1-0.2-1.7-0.3
			c-0.6-0.1-1.1-0.2-1.6-0.2c-0.5,0-1,0-1.5,0s-0.8,0.2-1.1,0.4c-0.1,0.1-0.1,0.2-0.2,0.3c-0.1,0.1-0.2,0.2-0.2,0.3l-0.1,0.1v0
			c0,0.1-0.1,0.1-0.1,0c0,0-0.1-0.1,0-0.2c0.1-0.2,0.3-0.4,0.4-0.5c0.1-0.2,0.2-0.4,0.2-0.5c0-0.3-0.1-0.4-0.2-0.4
			c-0.3,0-0.6,0.4-0.8,1.2c0.1,0.2,0.1,0.3,0.2,0.5c0,0.1,0,0.1,0,0.2c-0.1,0-0.2,0-0.2-0.1c0,0,0,0,0,0c-0.1-0.2-0.2-0.6-0.3-1
			c-0.1-0.4-0.2-0.8-0.3-1.3c-0.1-0.5-0.1-0.9-0.1-1.4c0-0.5,0-0.9,0.1-1.3c0.1-0.4,0.2-0.7,0.4-0.9C38.5,22.2,38.7,22.1,39.1,22.1z
			 M39.1,22.3c-0.3,0-0.5,0.1-0.6,0.3s-0.3,0.4-0.4,0.7C38,23.6,38,24,38,24.4c0,0.4,0,0.8,0.1,1.2c0,0.4,0.1,0.8,0.2,1.2
			c0.1-0.1,0.2-0.1,0.3-0.2c0.5-0.3,0.9-0.8,1.2-1.5c0.3-0.7,0.5-1.3,0.4-1.9c-0.1-0.6-0.4-0.9-0.9-0.9
			C39.2,22.3,39.1,22.3,39.1,22.3z"/>
	</g>
	<path class="st7" d="M48.7,26.7c0,6.3-5.1,11.3-11.3,11.3S26,33,26,26.7s5.1-11.3,11.3-11.3"/>
</g>
</svg>
