<?xml version="1.0" encoding="utf-8"?>
<!-- Generator: Adobe Illustrator 25.2.1, SVG Export Plug-In . SVG Version: 6.00 Build 0)  -->
<svg version="1.1" id="Layer_1" xmlns="http://www.w3.org/2000/svg" xmlns:xlink="http://www.w3.org/1999/xlink" x="0px" y="0px"
	 viewBox="0 0 2000 2000" style="enable-background:new 0 0 2000 2000;" xml:space="preserve">
<style type="text/css">
	.st0{fill:none;}
	.st1{fill:#231F20;}
	.st2{fill:none;stroke:#231F20;stroke-width:6;stroke-miterlimit:10;}
</style>
<path id="SVGID_x5F_1_x5F_" class="st0" d="M1072,566.7c0-282.8-229.3-512.1-512.1-512.1S47.7,283.8,47.7,566.7
	s229.3,512.1,512.1,512.1S1072,849.5,1072,566.7z"/>
<text><textPath  xlink:href="#SVGID_x5F_1_x5F_" startOffset="100.1637%">
<tspan  class="st1" style="font-family:'AmericanTypewriter-Condensed'; font-size:72px; letter-spacing:112.4;">Photobranded</tspan></textPath>
</text>
<g>
	<path class="st1" d="M507.7,531.4c7,0,12.8,1.5,17.4,4.5c4.6,3,7.7,6.9,9.2,11.6c1.5,4.7,2,9.8,1.5,15.3
		c-0.5,5.5-2.1,10.7-4.9,15.7c1.7,0.3,3.7,0.4,6,0.4c8.5,0.3,18.6-1,30.3-3.7c11.7-2.7,21-5.1,28-7.1c7-2,10.5-2.4,10.5-1.1
		c0,4-8.7,8.3-26,12.9c-17.3,4.6-31.5,6.9-42.4,6.9c-4.2,0-8.1-0.2-11.6-0.7c-7.5,9-16.9,13.5-28.4,13.5c-7.5,0-12.1-3.2-13.8-9.7
		c-1.5-6.2,0.6-11.1,6.4-14.6c2.7-1.5,6-2.2,9.7-2.2c4.2,0,11.2,1.2,20.9,3.7c3-5,4.7-10.1,5-15.5c0.4-5.4-0.9-10-3.9-13.8
		c-3-3.9-7.5-5.8-13.5-5.8c-9.5,0-18.2,7-26.2,21.1c-8,14.1-14.5,31.7-19.6,52.9c-5.1,21.2-9.8,44.2-14,68.9
		c-4.2,24.8-7.7,47.8-10.3,68.9c-2.6,21.2-5.2,38.9-7.8,53.1c-2.6,14.2-4.9,21.3-6.9,21.3c-8.7,0-13.3-20.1-13.8-60.3
		c-0.5-40.2,1.4-82.3,5.6-126.1c4.2-43.8,8.5-73.9,12.7-90.1c-17.2,9.5-35,17.1-53.4,23c-18.4,5.9-36.2,9.8-53.2,12
		c-17.1,2.1-34.3,3.2-51.6,3.2c-17.3,0-34.1-1-50.3-3c-16.2-2-32-4.2-47.5-6.7c-15.4-2.5-30.5-5-45.2-7.7
		c-14.7-2.6-28.5-4.8-41.5-6.5c-13-1.7-25.7-2.5-38.1-2.2c-12.5,0.3-23.5,1.6-33.3,4.1c-7.7,2-12.2,1-13.5-3c-1-3.7,1.4-7,7.1-9.7
		c1.2-0.7,2.7-1.2,4.5-1.5c8.2-2.2,17.2-3,26.9-2.2c9.7,0.7,21.4,2.1,34.9,4.1c13.6,2,27.4,4.6,41.5,7.8c14.1,3.2,29.6,6.2,46.7,8.8
		c17.1,2.6,34,5.1,50.8,7.5c16.8,2.4,34.6,3.6,53.4,3.7c18.8,0.1,37.1-0.8,54.9-2.8c17.8-2,36.2-6,55.3-12
		c19.1-6,37.2-13.8,54.4-23.5c3.5-3.5,6.7-4.2,9.7-2.2c1.5,1,1.9,2.2,1.1,3.7c-1,1.7-2.8,12.1-5.4,31c-2.6,18.9-5.2,41.5-7.8,67.6
		c-2.6,26.2-5,52.1-7.1,77.7c-2.1,25.7-3.1,47.5-2.8,65.4c0.2,17.9,1.9,26.9,4.9,26.9c0.5,0,1.1-5.2,1.9-15.7s1.9-24,3.4-40.7
		c1.5-16.7,3.4-35.1,5.8-55.1c2.4-20.1,5.7-40.2,9.9-60.3c4.2-20.2,9.1-38.6,14.6-55.1c5.5-16.6,12.5-30.1,20.9-40.5
		C488.1,536.7,497.4,531.4,507.7,531.4z M499.4,581.9c-4.5,0-6.6,1.4-6.4,4.1c0,2.5,1.9,3.7,5.6,3.7c5.7,0,10.8-2,15.3-6
		C508.8,582.5,503.9,581.9,499.4,581.9z"/>
	<path class="st1" d="M639.8,355.3c30.1,0,47.8,14.3,53.1,43c5.2,28.6-0.3,59.9-16.6,93.8c-16.3,33.9-36.9,58-61.8,72.5
		c-4.2,2.5-8.6,4.9-13.1,7.1c2.7,12.2,5.6,23.4,8.6,33.6c1.5-6.2,3.2-12.1,5-17.6c1.9-5.5,4.4-11,7.7-16.4
		c3.2-5.5,7.3-9.9,12.1-13.3c4.9-3.4,10.1-5,15.9-5c6.7,0,11.8,2.8,15.1,8.4c3.4,5.6,5,12.6,5,21.1c0,3.2-0.6,6.7-1.9,10.5
		c14.4-7.2,32.1-12,52.9-14.2c20.8-2.2,42.5-2.4,65.2-0.4c22.7,2,46.5,4.8,71.4,8.4c24.9,3.6,49.6,7.2,74,10.7
		c24.4,3.5,47.6,6.2,69.7,8c22,1.9,42.8,1.7,62.4-0.4c19.6-2.1,35.7-6.9,48.4-14.4c3.7-1.7,6.5-2.1,8.4-0.9c1.9,1.1,2.6,3.1,2.2,5.8
		c-0.4,2.7-2.1,5-5,6.7c-12.2,7-28.3,11.3-48.2,12.9c-19.9,1.6-41.4,1.2-64.3-1.3c-22.9-2.5-47.1-5.9-72.7-10.1
		c-25.5-4.2-51.1-8.3-76.8-12.3c-25.7-4-50.1-6.9-73.4-8.8c-23.3-1.9-45.3-1.4-66.1,1.5c-20.8,2.9-37.9,8.5-51.4,17
		c-2.7,5.2-6.3,10.4-10.6,15.5c-4.4,5.1-8,9-11,11.8l-4.9,4.1v-0.7c-1.2,2.7-3,3.3-5.2,1.7c-2.2-1.6-2.5-3.9-0.7-6.9
		c5.2-9.2,12-17.1,20.2-23.5c4.7-9,7.1-15.9,7.1-20.9c0-13.2-3.5-19.8-10.5-19.8c-14.9,0-26.9,18.1-35.9,54.2c3,8.7,6,15.6,9,20.6
		c2.2,4,1.9,6.6-1.1,7.8c-3.5,1.7-7-0.4-10.5-6.4c-0.3-0.5-0.5-1-0.7-1.5c-5.2-11-10.3-25.4-15.3-43.2c-5-17.8-9.3-37.2-12.9-58.3
		c-3.6-21-5.5-42.2-5.6-63.5c-0.1-21.3,1.4-40.7,4.7-58.1c3.2-17.4,9.8-31.6,19.8-42.4C611.3,360.7,624.1,355.3,639.8,355.3z
		 M639.4,365c-11.7,0-21.4,4.4-29.1,13.1c-7.7,8.7-13.1,20-16.3,33.8c-3.1,13.8-4.9,29.8-5.2,47.8c-0.4,18.1,0.5,36.1,2.6,54
		c2.1,17.9,5,35.8,8.8,53.4c4.5-2.5,8.8-5,13.1-7.5c22.4-12.7,41.1-34.9,56.1-66.5c14.9-32.1,20.6-60.9,16.8-86.3
		c-4-25.4-17.4-39.2-40.4-41.5C643.8,365.1,641.7,365,639.4,365z"/>
</g>
<path class="st2" d="M1072,566.5c0,282.8-229.3,512.1-512.1,512.1S47.7,849.3,47.7,566.5S277,54.4,559.8,54.4"/>
</svg>
